<?xml version="1.0" standalone="no"?>
<!DOCTYPE svg PUBLIC "-//W3C//DTD SVG 1.1//EN" "http://www.w3.org/Graphics/SVG/1.1/DTD/svg11.dtd" >
<svg xmlns="http://www.w3.org/2000/svg">
<metadata>Generated by IcoMoon</metadata>
<defs>
<font id="font-icon-bakhshi" horiz-adv-x="1024">
<font-face units-per-em="1024" ascent="960" descent="-64" />
<missing-glyph horiz-adv-x="1024" />
<glyph unicode="&#x20;" horiz-adv-x="512" d="" />
<glyph unicode="&#xe600;" glyph-name="Behance" d="M424.072 478.188c21.438 10.876 37.624 23 48.624 36.248 19.686 23.626 29.53 54.936 29.53 93.81 0 37.748-9.782 70.184-29.248 97.246-32.404 44.058-87.434 66.686-165.086 67.808h-307.862v-636.974h286.986c32.406 0 62.372 2.812 90.028 8.626 27.654 5.75 51.654 16.44 72.028 32 17.998 13.5 33.030 30.25 45.058 50.126 18.938 29.998 28.406 63.806 28.406 101.556 0 36.626-8.31 67.686-24.844 93.308-16.56 25.682-41.090 44.432-73.62 56.246zM127.086 662.744h138.556c30.5 0 55.622-3.376 75.278-10 22.78-9.5 34.218-29.126 34.218-58.81 0-26.686-8.626-45.374-25.874-55.936-17.25-10.5-39.686-15.75-67.372-15.75h-154.806v140.496zM346.264 258.198c-15.374-7.5-36.904-11.19-64.528-11.19h-154.65v169.806h156.804c27.312-0.312 48.53-3.876 63.622-10.812 27.062-12.438 40.56-35.126 40.56-68.308 0.002-39.188-13.904-65.688-41.808-79.496zM661.904 734.928h255.988v-61.498h-255.988v61.498zM1019.824 433.064c-5.75 36.998-18.31 69.434-37.56 97.434-21.436 31.748-48.556 54.998-81.434 69.684-32.81 14.686-69.746 22.062-110.744 22.062-69.028 0-125.182-21.812-168.43-65.31-43.248-43.562-64.902-106.122-64.902-187.744 0-87.058 23.938-149.932 71.876-188.554 47.936-38.626 103.21-57.936 165.898-57.936 75.934 0 135.052 22.876 177.238 68.686 22.060 23.5 36.248 46.688 42.558 69.496h-132.304c-4.876-6.558-10.058-12.188-15.75-16.808-17.494-14.376-40.244-21.56-68.372-21.56-26.466 0-49.030 5.876-67.872 17.748-30.942 19-47.31 52.126-49.284 99.376h343.080c0.628 40.676-0.748 71.802-3.998 93.426zM683.78 420.876c4.5 30.624 15.4 54.936 32.806 72.872 17.404 17.936 41.904 26.936 73.558 26.936 28.998 0 53.374-8.438 72.996-25.374 19.626-16.938 30.626-41.75 32.81-74.434h-212.17z" />
<glyph unicode="&#xe601;" glyph-name="Deviantart" d="M563.254 552.058c-0.062 0-0.094 0-0.126 0l-116.434-10.25 110.46-211.68 466.822 129.872c-116.618 177.872-465.040 217.43-675.748 173.306l-41.28 78.748c-1.156-0.188-2.312-0.438-3.468-0.626l-105.712-25.5c-2.032-0.688-4.032-1.31-6.062-1.938l38.374-81.248c-147.742-60.684-238.362-172.93-229.456-306.988 2.626-39.308 13.25-78.746 30.968-111.808l481.82 133.996-129.058 246.366c14.75 2.376 29.906 4.562 45.342 6.376l1.5 0.812 0.282-0.562c124.87 14.626 266.050 6.812 357.546-86.808l-161.992-39.436-63.778 107.368zM175.896 334.816c-16.624 93.122 21.468 154.618 89.964 192.242l72.122-152.746-162.086-39.496z" />
<glyph unicode="&#xe602;" glyph-name="Dribbble" d="M512.002 959.982c-282.8 0-511.976-229.242-511.976-511.982 0-282.742 229.176-511.982 511.976-511.982 282.734 0 511.972 229.24 511.972 511.982 0 282.74-229.238 511.982-511.972 511.982zM876.858 602.058c15.058-35.75 24.748-73.184 28.806-111.684-14.556 0.812-29.248 1.25-44.248 1.25-64.934 0-133.8-7.5-204.366-22.936-11.748 25.062-24.436 50.376-37.81 75.748 79.686 39.5 150.994 86.684 211.678 138.246 18.316-24.938 33.752-51.876 45.94-80.624zM183.704 226.448c-14.312 21.126-26.56 43.746-36.626 67.434-20.31 48-30.686 99.126-30.996 151.808 28.186-4 57.746-6.062 88.432-6.062 95.12 0 200.8 19.376 307.736 58.75 10.934-20.374 21.308-40.812 31.184-61.184-1.376-0.438-2.75-0.938-4.060-1.376-144.43-49.128-267.174-123.874-355.67-209.37zM666.054 812.862c29.56-12.5 57.248-28.436 82.808-47.56-54.438-45.25-116.306-84.998-184.116-118.308-1.062-0.562-2.192-1.062-3.192-1.626-43.626 70.81-89.934 134.558-136.432 189.056 28.31 6.312 57.31 9.5 86.874 9.5 53.502 0 105.31-10.438 154.058-31.062zM231.952 727.99c23.812 23.686 50.060 44.124 78.496 60.936 48.874-53.124 97.432-117.496 142.368-188.556-25.374-8.688-50.748-16.25-76.182-22.5-59.684-14.75-117.682-22.186-172.118-22.186-25.312 0-49.498 1.626-72.246 4.876 4.126 14.062 9.124 27.936 14.812 41.5 19.936 47.184 48.498 89.558 84.87 125.93zM357.882 83.076c-34.686 14.75-66.748 34.062-95.746 57.748 31.312 30.624 67.81 59.56 109.122 86.374 61.748 40.126 130.868 73.376 205.49 98.746 4.5 1.562 8.938 3 13.5 4.5 24.996-63.812 43.808-125.622 55.246-182.182 4.938-24.56 8.438-47.81 10.376-69.248-45.746-17.876-94.124-26.936-143.868-26.936-53.562 0-105.372 10.436-154.12 30.998zM791.924 168.010c-8.75-8.808-17.938-17.124-27.436-24.998-11 65.498-31.56 139.056-61.186 216.682 53.876 10.438 107.122 15.808 158.118 15.808v0 0c13.442 0 26.692-0.312 39.626-1.126-5.126-27.5-13.186-54.434-24.186-80.496-20.002-47.060-48.564-89.432-84.936-125.87z" />
<glyph unicode="&#xe603;" glyph-name="Facebook" d="M586.244 561.934v167.62h0.188c-0.126 1.126-0.188 2.25-0.188 3.438 0 21.686 17.56 39.312 39.246 39.312h133.124v187.678h-196.24v-0.626c-101.246-7.812-180.93-92.434-180.93-195.618v-201.806h-116.056v-187.742h116.056v-438.172h204.802v460.734h133.306l20.81 165.182h-154.118z" />
<glyph unicode="&#xe604;" glyph-name="Flickr" d="M235.516 683.524c-130.088 0-235.49-105.496-235.49-235.554s105.402-235.492 235.49-235.492c130.054 0 235.488 105.434 235.488 235.492s-105.436 235.554-235.488 235.554zM788.456 683.524c-130.056 0-235.52-105.496-235.52-235.554s105.458-235.492 235.52-235.492c130.058 0 235.52 105.434 235.52 235.492s-105.462 235.554-235.52 235.554zM899.48 336.972c-29.686-29.688-69.058-46-111.026-46-41.936 0-81.376 16.312-111.030 46-29.65 29.624-45.994 69.058-45.994 110.996 0 41.998 16.344 81.434 45.994 111.058 29.654 29.624 69.094 46 111.030 46 41.962 0 81.34-16.376 111.026-46 29.626-29.626 45.998-69.060 45.998-111.058 0-41.936-16.372-81.372-45.998-110.996z" />
<glyph unicode="&#xe605;" glyph-name="Googleplus" d="M888.232 799.896v135.368h-67.872v-135.368h-135.774v-67.748h135.774v-135.37h67.872v135.37h135.742v67.748zM515.502 379.036c-95.030 69.126-118.278 108.184-27.56 178.182 51.122 39.436 86.96 91.934 86.96 156.806 0 70.684-28.966 134.808-83.494 165.932h77.278l65.746 68.81c0 0-247.89 0-294.266 0-183.68 0-273.77-109.808-273.77-230.554 0-123.434 84.936-220.618 250.738-220.618-25.716-51.75-15.406-99.558 26.654-133.746-283.174 0-343.764-123.934-343.764-219.368 0-123.746 142.556-197.246 313.516-197.246 233.738 0 326.672 123.558 326.672 224.992 0 82.75-30.998 136.814-124.71 206.81zM177.080 720.024c-13.718 103.874 39.464 183.372 118.776 181.056 79.278-2.376 147.118-87.622 160.802-191.43 13.69-103.934-31.936-170.744-111.21-168.37-79.312 2.31-154.714 74.872-168.368 178.744zM314.384 2.238c-118.15 0-203.49 74.558-203.49 164.18 0 87.808 100.122 163.558 218.272 162.246 131.086 0 209.27-81.376 209.27-166.808 0-89.622-72.996-159.618-224.052-159.618z" />
<glyph unicode="&#xe606;" glyph-name="Instagram" d="M512 248.758c108.4 0 196.274 87.808 196.274 196.242 0 108.374-87.876 196.246-196.274 196.246-108.402 0-196.24-87.872-196.24-196.246 0-108.434 87.838-196.242 196.24-196.242zM404.63 552.432c28.686 28.626 66.808 44.436 107.37 44.436 40.592 0 78.714-15.812 107.432-44.436 28.654-28.75 44.438-66.874 44.438-107.432 0-40.626-15.784-78.75-44.438-107.434-28.714-28.688-66.84-44.438-107.432-44.438-40.56 0-78.684 15.75-107.37 44.438-28.688 28.688-44.498 66.808-44.498 107.434 0 40.562 15.812 78.684 44.498 107.432zM788.486 959.982h-552.942c-12.562 0-24.876-1-36.904-2.876h37.714v-237.618h-44.4v236.43c-15.344-2.876-30.154-7.25-44.344-12.938v-223.492h-44.372v199.806c-62.31-42.374-103.214-113.806-103.214-194.804v-83.246h318.83c49.56 48.56 117.372 78.496 192.274 78.496 74.872 0 142.708-29.936 192.24-78.496h320.61v83.246c-0.004 130.056-105.404 235.492-235.492 235.492zM901.95 719.74h-116.088v116.056h116.088v-116.056zM785.862 445c0-151.746-123.030-274.804-274.736-274.804-151.776 0-274.77 123.058-274.77 274.804 0 56.124 16.842 108.306 45.81 151.87h-282.142v-425.362c0-130.054 105.464-235.488 235.522-235.488h552.942c130.088 0 235.488 105.434 235.488 235.488v425.362h-283.926c28.97-43.56 45.812-95.746 45.812-151.87z" />
<glyph unicode="&#xe607;" glyph-name="Livejournal" d="M929.052 330.508l-0.126-0.062-438.602 584.912c-24.25 29.936-62.81 44.626-107.308 44.626-54.060 0-116.744-21.688-172.804-64.186-102.308-77.498-144.556-195.18-95.932-265.24l-0.062-0.062 438.67-584.854 376.982-109.626-0.818 394.492zM802.558 105.89c-14.5-11-24.126-26.062-28.562-42.442l-160.992 46.812c38.688 59.246 51.438 132.122 35.688 200.742 61.308-34.126 134.492-41.938 201.87-20.808l0.438-168.434c-16.88 0.256-33.944-4.87-48.442-15.87zM466.136 816.614l41.248-55.060c-48.186-5.25-101.182-26.374-149.304-62.81-48.248-36.56-83.122-81.998-101.432-127.182l-41.186 54.998c1.5 7 3.436 13.25 5.186 18.436 7.062 20.25 18.188 40.374 33 59.998 15.75 20.874 35.060 39.936 57.184 56.748 22.124 16.75 45.686 30.062 69.996 39.562 22.812 8.936 45.186 14.124 66.498 15.312 5.436 0.308 11.81 0.434 18.81-0.002zM603.508 408.378l-200.556 267.552c16.688 10.812 34.062 19.812 51.872 26.75 22.75 8.938 45.186 14.062 66.5 15.376 5.376 0.25 11.748 0.312 18.748-0.062l290.424-387.358c-27.748-7.628-56.998-9.628-86.306-5.5-56.438 7.996-106.374 37.56-140.682 83.242zM289.396 527.936c1.5 6.936 3.438 13.186 5.188 18.376 7.124 20.25 18.186 40.436 33.060 59.998 11.5 15.312 24.936 29.624 39.874 42.748l200.428-267.554c34.312-45.684 48.876-102.122 40.94-158.804-4.126-29.562-14.19-57.312-29.126-82l-290.364 387.236zM257.46 832.798c21.186 16 43.622 28.436 66.684 36.874 20.5 7.438 40.874 11.374 58.872 11.374 21.5 0 38.436-5.624 46.374-15.5l4.062-5.312c-48.186-5.312-101.182-26.436-149.306-62.872-48.248-36.5-83.122-81.998-101.37-127.184l-4.126 5.5c-18.062 26 3.624 100.188 78.81 157.12z" />
<glyph unicode="&#xe608;" glyph-name="Pinterest" d="M535.934 959.982c-278.516 0-419.040-200.368-419.040-367.486 0-101.122 38.216-191.12 120.12-224.742 13.406-5.5 25.466-0.188 29.342 14.748 2.75 10.312 9.126 36.376 11.968 47.126 3.936 14.812 2.376 20-8.406 32.876-23.624 27.874-38.716 64.060-38.716 115.308 0 148.682 110.838 281.802 288.672 281.802 157.43 0 243.926-96.558 243.926-225.492 0-169.556-74.808-312.742-185.868-312.742-61.34 0-107.212 50.876-92.556 113.308 17.654 74.558 51.778 154.994 51.778 208.742 0 48.186-25.748 88.31-79.090 88.31-62.684 0-113.056-65.124-113.056-152.244 0-55.498 18.718-93.122 18.718-93.122s-64.184-272.742-75.434-320.492c-22.406-95.124 2.156-229.868 2.156-229.868s90.496 102.996 115.9 195.43c7.188 26.192 41.25 161.684 41.25 161.684 20.342-38.996 79.838-73.306 143.208-73.306 188.43 0 316.296 172.37 316.296 403.172 0.004 174.432-147.27 336.988-371.168 336.988z" />
<glyph unicode="&#xe609;" glyph-name="Twitter" d="M1023.976 765.706c-37.686-16.686-78.152-27.936-120.65-33.062 43.376 26 76.684 67.186 92.34 116.246-40.556-24.062-85.528-41.562-133.37-50.998-38.31 40.874-92.932 66.372-153.336 66.372-116.028 0-210.084-94.058-210.084-210.118 0-16.5 1.844-32.5 5.438-47.936-174.586 8.814-329.358 92.436-432.978 219.62-18.124-31.062-28.468-67.186-28.468-105.684 0-72.934 37.094-137.244 93.464-174.93-34.436 1.126-66.81 10.562-95.184 26.25 0-0.812 0-1.688 0-2.562 0-101.872 72.434-186.806 168.524-206.18-17.592-4.75-36.186-7.312-55.34-7.312-13.532 0-26.718 1.312-39.53 3.75 26.748-83.498 104.338-144.244 196.24-145.932-71.902-56.31-162.46-89.934-260.894-89.934-16.968 0-33.686 0.938-50.126 2.938 92.996-59.688 203.368-94.498 322.018-94.498 386.45 0 597.69 320.298 597.69 598.042 0 9.062-0.188 18.186-0.562 27.186 41 29.62 76.654 66.618 104.808 108.742z" />
<glyph unicode="&#xe60a;" glyph-name="Vimeo" d="M1023.48 690.148c-4.594-99.684-74.184-236.304-208.834-409.674-139.206-180.992-256.486-279.616-352.826-279.616-59.654 0-110.712 63.188-151.96 173.434-27.562 101.122-55.122 202.242-82.684 303.298-30.624 110.184-62.372 174.306-98.62 165.43-7.438-1.874-34.466-16.186-80.34-48.31l-48.186 62.124c50.53 44.436 100.402 88.872 149.4 133.308 67.404 58.31 117.994 88.998 151.71 91.996 79.714 7.688 128.776-46.81 147.182-163.494 19.842-125.876 33.654-204.18 41.374-234.804 22.966-104.498 48.246-156.62 75.874-156.62 21.404 0 53.626 33.876 96.556 101.624 42.904 67.748 65.842 119.246 68.936 154.744 6.124 58.434-16.876 87.746-68.936 87.746-24.534 0-54.278-12.5-80.278-23.686 44.962 134.932 150.958 251.928 292.888 247.366 105.184-3.060 154.776-71.308 148.744-204.866z" />
<glyph unicode="&#xe60b;" glyph-name="Youtube" d="M308.82 570.556h59.81v157.934l69.59 231.492h-60.748l-38.34-155.684-41.248 155.684h-60.248l71.184-231.492zM671.866 566.372c16.058 0 38.374 8.438 61.374 35.874v-31.686h53.126v287.236h-53.126v-217.992c-6.464-8.188-20.876-21.562-31.214-21.562-11.342 0-14.154 7.812-14.154 19.376v220.178h-53.092v-240.116c-0.006-28.31 8.618-51.308 37.086-51.308zM435.502 642.178c0-50.624 26.31-76.998 77.84-76.998 42.712 0 76.34 28.75 76.34 76.998v140.81c0 44.936-33.31 77.184-76.34 77.184-46.784 0-77.84-31.062-77.84-77.184v-140.81zM490.186 778.238c0 15.75 7.186 27.436 22.092 27.436 16.282 0 23.28-11.374 23.28-27.436v-133.62c0-15.624-7.936-27.124-22.214-27.124-14.69 0-23.156 12-23.156 27.124l-0.002 133.62zM787.922 253.196c-18.746 0-22.592-13.25-22.592-32v-27.75h44.69v27.75c-0.036 18.432-3.91 32-22.098 32zM591.274 251.508c-3.5-1.812-7.034-4.562-10.438-8.378v-170.43c4.126-4.5 8.094-7.688 11.966-9.626 8.25-4.188 20.28-4.562 25.876 2.812 2.938 3.876 4.402 10.058 4.402 18.876v141.246c0 9.184-1.808 16.246-5.402 20.996-6.124 8.124-17.558 9.066-26.404 4.504zM865.262 488.624h-706.528c-43.374 0-78.528-35.312-78.528-78.936v-394.734c0-43.626 35.156-78.934 78.528-78.934h706.53c43.376 0 78.53 35.308 78.53 78.934v394.734c-0.004 43.624-35.16 78.936-78.532 78.936zM277.822 20.64h-56.966v316.988h-58.902v53.872h174.804v-53.872h-58.934v-316.988zM480.436 20.64h-50.592v30.188c-9.312-11.188-19.030-19.628-29.092-25.438-27.28-15.688-64.684-15.378-64.684 40.122v228.616h50.56v-209.622c0-11.058 2.656-18.5 13.468-18.5 9.874 0 23.592 12.75 29.748 20.5v207.622h50.592v-273.488zM675.116 77.324c0-33.934-12.594-60.184-46.248-60.184-18.532 0-33.938 6.808-48.032 24.5v-21h-51.056v370.86h51.056v-119.434c11.406 14 26.938 25.562 44.996 25.562 37.034 0 49.284-31.5 49.284-68.558v-151.746zM862.074 151.012h-96.744v-51.626c0-20.5 1.75-38.25 22.092-38.25 21.346 0 22.562 14.438 22.562 38.25v19h52.090v-20.562c0-52.684-22.53-84.558-75.804-84.558-48.31 0-72.996 35.312-72.996 84.558v122.808c0 47.496 31.212 80.434 76.84 80.434 48.53 0 71.96-31 71.96-80.434v0-69.62z" />
<glyph unicode="&#xe60c;" glyph-name="Blogger" d="M973.434 574.656h-83.218c-27.938 0-50.558 22.748-50.558 50.75v22.094c-0.002 172.592-139.63 312.5-311.88 312.5h-215.934c-172.25 0-311.844-139.908-311.844-312.5v-399c0-172.594 139.594-312.5 311.844-312.5h400.308c172.254 0 311.848 139.906 311.848 312.5v275.53c0 27.938-22.66 50.626-50.566 50.626zM325.528 698.218h186.472c33.744 0 61.090-27.44 61.090-61.25 0-33.812-27.348-61.25-61.090-61.25h-186.47c-33.746 0-61.092 27.438-61.092 61.25-0.002 33.812 27.344 61.25 61.090 61.25zM698.622 202h-373.094c-33.746 0-61.092 27.434-61.092 61.312 0 33.75 27.346 61.188 61.092 61.188h373.092c33.75 0 61.094-27.438 61.094-61.188 0-33.878-27.342-61.312-61.092-61.312z" />
<glyph unicode="&#xe60d;" glyph-name="Delicious" d="M-0.934 960.010v-1024h1024v1024h-1024zM923.626 35.418h-412.56v412.594h-412.622v412.594h412.622v-412.594h412.56v-412.594z" />
<glyph unicode="&#xe60e;" glyph-name="Forrst" d="M467.316 144.468l-107.438 79.406 23.812 32.688 83.626-61.754v171.066h94.936v-110.25l83.094 45.814 19.28-35.688-102.374-56.282v-64.686l157.25 81.342 18.348-36.062-175.598-90.844v-163.218h371.962l-422.212 1024-422.216-1024h377.53z" />
<glyph unicode="&#xe60f;" glyph-name="Github" d="M1023.126 461.186l0.876 9.342c-56.91 5.502-113.504 5.97-168.504 1.814 8.848 27.874 13.468 59.376 13.128 95.156-0.688 76.094-26.378 135.312-66.66 184.438 7.75 46.342 1.938 92.624-12.718 138.936-57.624-4.656-109.498-23.282-155.654-55.718-86.344 17.344-172.626 18.406-258.968 0-53.84 35.936-106.75 53.562-158.782 55.718-15.466-51-17.84-101.282-4.814-150.686-45.406-47.658-62.778-105.5-61.902-169.562 0.464-36.658 6.184-69.252 16.714-98.126-54.152 3.938-109.842 3.436-165.842-1.97l0.876-9.342c57.092 5.466 113.78 5.938 168.808 1.654 2.034-4.842 4.098-9.654 6.378-14.312-59.654 1.562-113.378-3.56-163.624-15.78l2.248-9.128c51.066 12.378 105.754 17.378 166.816 15.348 40.342-70.906 118.062-112.562 231.278-125.786-26.346-21.058-40.436-45.996-44.060-74.184 0 0-11.936 0-59.94 0-80.53 0-102.496 101.5-185.902 91.468 80.904-39.692 64.78-166.41 194.214-166.41 43.504 0 52.786 0 54.376 0v-116.152c0.594-18.786-7.688-31.312-21.032-40.036 46.344-4.622 81.216 18.222 81.216 46.316 0 28.058 0 139.876 0 153.5 0 13.75 14.502 14.812 14.502 14.812v-179.282c0.564-17.876-8.188-28.032-17.5-37.718 40.876-1.598 79.282 6.434 81.030 40.876 0 0 0 162.876 0 171.532 0 8.626 14.282 8.844 14.282 0 0-8.848 0-163.532 0-163.532 0.438-28.968 25.754-52.5 79.376-48.876-14.282 11.464-18.718 23-18.718 39.688 0 16.684 0 177.312 0 177.312s14.782 0.714 14.782-14.812c0-15.406 0-123.594 0-149.468 0-33.316 40.464-47.062 86.594-45.754-15.094 11.222-25.376 24.566-25.406 42.41v179.812c-1.594 26.438-12.468 51.376-33.778 74.558 103.434 15.722 178.026 56.566 215.182 129.692 61.282 2.094 116.098-2.876 167.344-15.316l2.254 9.128c-50.722 12.312-104.848 17.436-165.128 15.78 2.126 4.658 4.188 9.284 5.934 14.188 55.688 4.41 113 3.97 170.724-1.528zM159.092 315.338c-2.56 0-4.688 1.472-4.688 3.16 0 1.812 2.128 3.25 4.688 3.25 2.498 0 4.594-1.438 4.594-3.25 0.002-1.688-2.096-3.16-4.594-3.16zM173.534 305.53c-2.786 0-5.126 1.59-5.126 3.59s2.342 3.566 5.126 3.566c2.842 0 5.122-1.566 5.122-3.566s-2.28-3.59-5.122-3.59zM188.25 292.838c-3.342 0-5.972 1.876-5.972 4.192 0 2.376 2.628 4.25 5.972 4.25 3.312 0 5.998-1.876 5.998-4.25 0-2.318-2.686-4.192-5.998-4.192zM202.56 277.624c-3.876 0-7.030 2.188-7.030 4.902 0 2.722 3.154 4.91 7.030 4.91 3.88 0 7.036-2.188 7.036-4.91-0.002-2.716-3.156-4.902-7.036-4.902zM218.25 260.374c-4.282 0-7.786 2.468-7.786 5.438 0 3.062 3.504 5.5 7.786 5.5 4.376 0 7.844-2.438 7.844-5.5 0-2.97-3.468-5.438-7.844-5.438zM236.5 242.874c-4.782 0-8.626 2.718-8.626 6.062 0 3.376 3.844 6.126 8.626 6.126 4.844 0 8.688-2.75 8.688-6.126-0.002-3.344-3.844-6.062-8.688-6.062zM261.156 226.248c-5.314 0-9.626 3-9.626 6.75s4.312 6.746 9.626 6.746c5.314 0 9.626-2.996 9.626-6.746s-4.314-6.75-9.626-6.75zM291.72 217.31c-5.282 0-9.69 3.062-9.69 6.75 0 3.75 4.408 6.782 9.69 6.782 5.278 0 9.654-3.032 9.654-6.782 0-3.686-4.376-6.75-9.654-6.75zM323.938 216.342c-5.346 0-9.658 3-9.658 6.688 0 3.782 4.312 6.782 9.658 6.782 5.308 0 9.558-3 9.558-6.782 0.002-3.688-4.248-6.688-9.558-6.688zM355.718 215.686c-5.284 0-9.626 3-9.626 6.812 0 3.688 4.344 6.718 9.626 6.718 5.314 0 9.626-3.032 9.626-6.718 0-3.812-4.312-6.812-9.626-6.812z" />
<glyph unicode="&#xe610;" glyph-name="Lastfm" d="M451.626 225.68l-37.564 102.062c0 0-61-68.062-152.438-68.062-80.936 0-138.436 70.438-138.436 183.046 0 144.25 72.686 195.906 144.25 195.906 103.214 0 136.058-66.906 164.244-152.532l37.5-117.296c37.564-113.75 107.906-205.25 310.842-205.25 145.472 0 243.972 44.562 243.972 161.812 0 95.016-53.938 144.328-154.816 167.796l-75.062 16.406c-51.626 11.718-66.876 32.812-66.876 68.062 0 39.844 31.656 63.344 83.312 63.344 56.25 0 86.746-21.156 91.468-71.562l117.286 14.062c-9.378 105.596-82.066 148.968-201.722 148.968-105.594 0-208.782-39.844-208.782-167.718 0-79.782 38.692-130.218 136.062-153.672l79.75-18.75c59.816-14.062 79.75-38.75 79.75-72.75 0-43.376-42.25-61-121.996-61-118.438 0-167.718 62.188-195.876 147.812l-38.692 117.266c-49.248 152.5-127.874 208.812-283.874 208.812-172.426 0.004-263.928-109.090-263.928-294.438 0-178.324 91.502-274.45 255.748-274.45 132.5 0 195.878 62.126 195.878 62.126v0z" />
<glyph unicode="&#xe611;" glyph-name="Like" d="M1023.974 84.982v498.98h-1l-74.59 42.998h-172.804v111.874l23.406 75.684-0.344 0.126h0.344v87.184h-150.462v-0.876l-135.244-316.74c-7.376-13.060-16.5-25.126-27.34-36.124-30.876-30.75-71.904-47.748-115.622-47.748-11.060 0-21.81 1.062-32.374 3.126v81.31h-337.918v-590.604h337.922v84.376h147.836l84.496-84.376h362.606l91.088 90.81zM976.258 104.732l-63.054-62.876h-323.112l-83.124 83.060v1.312h-169.020v328.928c10.592-1.626 21.312-2.5 32.374-2.5 81.152 0 151.432 45.686 186.772 112.622 0 0 9.438 19.626 12.036 27l111.272 261.866h70.746v-32.438l-22.748-73.684h-0.562v-168.806h207.8l40.624-23.374v-451.11z" />
<glyph unicode="&#xe612;" glyph-name="Linkedin" d="M250.032 834.062c0-69.594-55.966-125.97-125.034-125.97-68.998 0-124.998 56.376-124.998 125.97 0 69.532 56 125.938 124.998 125.938 69.066 0 125.034-56.406 125.034-125.938zM231.748 618.718h-211.436v-682.718h211.436v682.718zM569.688 618.718h-202.752v-682.718h202.752c0 0 0 253.218 0 358.376 0 96 44.214 153.126 128.808 153.126 77.75 0 115.126-54.844 115.126-153.126 0-98.344 0-358.376 0-358.376h210.378c0 0 0 249.438 0 432.25 0 182.936-103.692 271.282-248.504 271.282-144.844 0-205.808-112.814-205.808-112.814v92z" />
<glyph unicode="&#xe613;" glyph-name="f4" horiz-adv-x="1872" d="M0 525.581l45.047-590.617h1276.333l65.068 590.617zM630.659 815.884l-195.204 145.152h-390.408v-355.371h1276.333v210.22zM1871.955 495.55l-195.204-220.23-190.199 220.23z" />
<glyph unicode="&#xe614;" glyph-name="Skype" d="M975.882 366.066c4.656 26.622 7.126 54.058 7.126 81.932 0 260.116-210.892 471.108-471.004 471.108-27.966 0-55.31-2.5-81.964-7.188-44.22 30.312-97.624 48.062-155.246 48.062-151.744 0-274.768-122.996-274.768-274.74 0-57.686 17.716-111.122 48.030-155.37-4.626-26.562-7.062-53.998-7.062-81.872 0-260.116 210.802-471.108 471.010-471.108 27.902 0 55.34 2.438 81.962 7.126 44.154-30.312 97.62-47.996 155.274-47.996 151.71 0 274.736 122.992 274.736 274.738-0.002 57.62-17.78 111.12-48.094 155.308zM714.334 255.508c-17.938-25.562-44.306-45.562-78.934-60-34.626-14.5-75.714-21.688-123.148-21.688-56.998 0-103.996 9.812-140.994 29.626-26.156 14.188-47.466 33.188-63.936 57-16.342 23.684-24.624 46.808-24.624 69.308 0 13 4.968 24.188 14.75 33.438 9.874 9.312 22.436 13.876 37.654 13.876 12.312 0 22.812-3.562 31.308-10.876 8.406-7.126 15.812-17.938 21.782-32.062 7.376-17 15.342-31.058 23.842-42.376 8.5-11.376 20.53-20.75 36-27.996 15.498-7.438 35.874-11.128 60.962-11.128 34.746 0 62.876 7.5 84.462 22.25 21.624 14.878 32.498 33.312 32.498 55.562 0 17.558-5.786 31.876-17.498 42.808-11.69 11.062-26.784 19.438-45.342 25.25-18.468 5.688-43.126 11.812-74.152 18.312-41.436 9.058-76.154 19.5-104.090 31.31-27.874 12.062-50.184 28.25-66.434 48.874-16.534 20.686-24.656 46.374-24.656 76.872 0 29.312 8.624 55.186 26 77.81 17.218 22.626 42.34 40.126 75.122 52.248 32.876 12.25 71.402 18.25 115.684 18.25 35.402 0 66.15-3.936 91.93-12.062 25.876-8.062 47.284-18.75 64.376-32.124 16.906-13.5 29.498-27.562 37.342-42.186 7.876-14.688 11.786-29.062 11.786-43 0-12.876-4.906-24.436-14.598-34.686-9.902-10.186-22.212-15.374-36.9-15.374-13.344 0-23.626 3.126-30.534 9.25s-14.464 16.25-22.56 30.25c-10.532 19.936-23.126 35.686-37.84 46.936-14.716 11.126-38.344 16.75-70.84 16.75-30.188 0-54.436-6.124-72.996-18.312-18.532-12.126-27.718-26.812-27.718-43.874 0-10.626 3.094-19.876 9.438-27.5 6.284-7.75 14.936-14.376 25.968-19.938 10.966-5.562 22.154-9.812 33.464-13.126 11.284-3.062 29.876-7.626 55.876-13.562 32.464-7.062 61.902-14.812 88.304-23.312 26.344-8.436 48.784-18.626 67.31-30.686 18.592-12.188 32.998-27.308 43.28-45.808 10.404-18.442 15.56-41.062 15.56-67.808 0-32.062-9.030-60.876-26.904-86.496z" />
<glyph unicode="&#xe615;" glyph-name="Tumblr" d="M404.654 960c-6.528-52.75-18.434-96.218-35.748-130.342-17.314-34.158-40.25-63.406-68.874-87.782-28.594-24.344-62.94-43.094-103.064-56.126v-145.876h112.216v-358.874c0-46.782 4.908-82.41 14.722-107.066 9.808-24.59 27.436-47.84 52.842-69.75 25.406-21.84 56.092-38.684 92.090-50.496s77.378-17.688 124.19-17.688c41.25 0 79.626 4.126 115.126 12.406 35.438 8.282 75.090 22.652 118.876 43.278v161.004c-51.348-33.692-102.968-50.562-154.808-50.562-29.188 0-55.128 6.808-77.812 20.406-17.098 10.032-28.812 23.5-35.128 40.344-6.282 16.876-9.402 55-9.402 114.344v262.654h243.336v160.75h-243.338v259.376h-145.224z" />
<glyph unicode="&#xe616;" glyph-name="Vkontakte" d="M561.6 155.87c25.934 0 36.594 17.286 36.246 38.938-1.312 81.688 30.468 125.66 87.876 68.378 63.5-63.438 76.626-107.316 153.75-107.316 29.274 0 108.058 0 136.496 0 107.406 0 11.688 107.628-63.968 177.75-71.942 66.692-75.344 68.286-13.376 148.52 76.906 99.624 177.468 227.998 88.504 227.998-17.41 0-4.972 0-169.848 0-32.968 0-35.376-19.216-47.058-46.876-42.438-99.906-123.122-229.47-153.782-209.686-32.094 20.688-17.41 90.874-14.938 212.466 0.66 32.126 0.468 54.218-48.656 65.596-134.248 31.126-250.592-30.064-203.064-38.876 67-12.502 60.566-145.69 44.968-208.218-27.216-108.89-129.528 86.186-172.182 183.374-10.284 23.376-13.408 42.218-50.158 42.218-20.124 0-109.002 0-138.874 0-26.752 0-39.874-12.25-30.528-37.094 9.34-24.81 116.81-264.858 243.874-401.794 117.59-126.75 233.836-115.378 314.718-115.378z" />
<glyph unicode="&#xe617;" glyph-name="Xing" d="M636.562-64l-229.752 412.468 348.19 611.532h212.874l-348.186-611.532 227.372-412.468h-210.498zM327.314 757.374h-213.062l119.438-205.374-177.564-309.626h211.998l177.626 310.216-118.436 204.784z" />
<glyph unicode="&#xe618;" glyph-name="baseballbat" d="M1000.604 936.63c-31.126 31.124-81.556 31.124-112.71 0l-377.92-377.924-270.956-327.376-193.616-193.622-13.468 13.5-31.906-31.872 83.372-83.308 31.842 31.81-13.468 13.5 193.584 193.618 327.33 271.008 377.92 377.986c31.152 31.122 31.152 81.558-0.004 112.68z" />
<glyph unicode="&#xe619;" glyph-name="baseball" d="M549.090 630.432l-58.71 58.748c-3.126-6.876-6.312-13.688-9.75-20.438-14.876-29.060-32.624-56.060-53.154-80.808l55.716-55.624c25.182 29.436 47.398 62.248 65.898 98.122zM1016.598 534.060l0.782 0.75c-0.312 0.062-0.594 0.126-0.906 0.188-26.626 153.432-122.618 292.926-272.080 369.050-47.060 23.936-96.088 39.936-145.524 48.498-0.19 0.876-0.312 1.75-0.44 2.626l-2.19-2.188c-27.936 4.626-55.936 7-83.808 7-186.392-0.064-366.102-102.248-456.506-279.68-51.748-101.496-66.34-212.116-48.842-316.428l-2.438-2.376c0.968-0.188 1.938-0.376 2.876-0.5 26.624-153.494 122.62-292.928 272.112-369.112 46.998-24 96.026-39.942 145.492-48.498 0-0.19 0.062-0.44 0.062-0.69l0.656 0.626c28.53-4.876 57.216-7.312 85.778-7.312 186.366 0 366.014 102.184 456.478 279.62 51.998 102.122 66.498 213.492 48.498 318.426zM944.414 416.94c-4.126-57.746-19.686-113.558-46.248-165.682-36.998-72.56-93.276-132.994-162.708-174.682-67.714-40.56-145.086-62.058-223.832-62.058-5.126 0-10.188 0.062-15.312 0.25-0.938 26.626 0.5 53.184 4.468 79.558 1.406 9.75 3.218 19.376 5.344 29l-63.902 63.872c-17.25-53.374-25.25-108.184-24.592-162.302-1.812 0.376-3.562 0.75-5.312 1.188-33.436 8-66.090 20-97.058 35.748-52.186 26.626-97.558 62.562-134.87 106.934-36.060 42.812-63.184 91.748-80.558 145.308-4.25 13.058-7.874 26.25-10.874 39.558 55.31-0.56 110.058 7.876 162.18 24.688l-63.934 63.808c-35.624-7.808-71.872-11.058-108.432-9.808-0.532 15.5-0.312 31.060 0.812 46.686 4.126 57.748 19.686 113.558 46.248 165.744 36.998 72.56 93.276 132.932 162.742 174.62 67.654 40.624 145.056 62.060 223.864 62.060v0 0c5.064 0 10.094-0.062 15.188-0.25 1-26.624-0.468-53.186-4.376-79.558-1.44-9.75-3.284-19.376-5.376-28.938l63.934-63.934c17.19 53.436 25.19 108.184 24.562 162.37 1.75-0.438 3.532-0.812 5.306-1.25 33.442-7.938 66.126-20 97.058-35.75 52.154-26.562 97.532-62.56 134.838-106.872 36.060-42.874 63.214-91.808 80.626-145.306 4.25-13.126 7.812-26.312 10.842-39.562-55.376 0.5-110.124-7.938-162.18-24.686l63.936-63.936c35.624 7.876 71.872 11.126 108.37 9.876 0.622-15.508 0.372-31.070-0.754-46.694zM270.76 469.562l58.778-58.748c34.904 18 67.904 40.124 98.152 65.936l-55.716 55.686c-30.81-25.564-64.716-46.624-101.214-62.874zM596.306 419.19l55.686-55.746c30.81 25.684 64.746 46.746 101.244 62.934l-58.81 58.75c-34.936-18.004-67.872-40.064-98.12-65.938zM474.876 265.508l58.778-58.748c3.062 6.876 6.312 13.688 9.718 20.438 14.876 29.126 32.626 56.126 53.152 80.808l-55.714 55.626c-25.186-29.438-47.376-62.188-65.934-98.124z" />
<glyph unicode="&#xe61a;" glyph-name="basketball" d="M455.19 449.256l-139.304 139.306c-51.248-46.376-109.496-82.934-173.492-108.872-45.998-18.626-93.62-31.312-142.368-37.936 1.406-116.126 42.060-231.872 122.026-325.614l333.138 333.116zM1023.912 451.506c-0.75 118.184-42.248 236.118-124.398 331.050l-333.328-333.3 139.742-139.682c49.56 43.558 105.496 78.058 166.684 102.872 48.806 19.812 99.46 32.81 151.3 39.060zM260.264 644.186l-137.056 137.058c-65-75.746-104.31-165.932-117.87-259.178 92.12 15.5 180.802 56.186 254.926 122.12zM178.766 836.742l136.054-136.058c61.498 74.31 98.874 161.808 111.996 252.242-89.306-15-175.364-53.686-248.050-116.184zM706.052 198.39c-64.434-75.058-103.622-164.306-117.494-256.74 92.34 13.998 181.618 53.124 256.644 117.554l-139.15 139.186zM1023.974 448.132v-0.312c0 0.124 0 0.186 0 0.312zM506.938 959.8c-6.034-53.124-19.216-105.058-39.466-154.996-23.686-58.434-56.214-111.932-96.902-159.87l140.12-140.12 333.136 333.048c-99.056 84.502-222.738 125.126-345.45 121.938h8.562zM761.55 253.886l139.18-139.122c64.436 74.996 103.626 164.242 117.526 256.618-92.338-13.872-181.646-53.058-256.706-117.496zM508.502-63.974c6.188 51.81 19.25 102.496 39.058 151.306 24.812 61.186 59.31 117.122 102.84 166.744l-139.71 139.682-333.3-333.364c94.934-82.12 212.898-123.618 331.112-124.368z" />
<glyph unicode="&#xe61b;" glyph-name="bowling" d="M426.566 646.496c4.126-23.562 6.906-39.436 6.906-39.436l-13-39.126h183.026l-13.034 39.126c0 0 2.81 15.874 6.938 39.436h-170.836zM668.804 371.754h0.062l-50.56 151.808h-212.614l-50.59-151.808h0.062c-24.656-52.558-39.28-117.804-39.28-188.618 0-100.308 29.374-189.622 75.090-247.122h241.926c45.782 57.5 75.214 146.808 75.214 247.122 0.002 70.814-14.656 136.060-39.31 188.618zM605.122 690.804c11.092 64.372 24.53 143.556 24.53 151.432 0 65.060-52.686 117.746-117.682 117.746-64.964 0-117.65-52.686-117.65-117.746 0-7.876 13.406-87.060 24.53-151.432h186.272z" />
<glyph unicode="&#xe61c;" glyph-name="football" d="M744.36 904.112c-74.432 37.872-153.772 55.872-231.988 55.872-186.334 0-366.044-102.184-456.446-279.678-128.338-251.8-28.218-560.042 223.676-688.41 74.434-37.938 153.774-55.878 231.958-55.878 186.396 0 366.076 102.126 456.51 279.622 128.366 251.86 28.184 560.1-223.71 688.472zM944.38 417.004c-0.468-6.626-1.062-13.126-1.844-19.626l-117.874-108.876-18.78-159.184c-21.532-19.808-45.126-37.496-70.466-52.746-42.962-25.75-89.87-43.812-138.55-53.626l-139.806 78.438-157.118-31.378c-45.748 25.688-85.932 58.812-119.556 98.746-17.624 21-33.092 43.378-46.372 67.062l31.31 157.242-78.434 139.934c7.718 38.624 20.75 76.060 38.936 111.746 18.156 35.562 40.904 68.186 67.56 97.122l159.118 18.812 108.806 117.808c16.906 2 33.936 3 51.092 3v0 0c33.436 0 66.808-3.936 99.276-11.624 27.968-6.626 55.376-16.124 81.714-28.25l66.998-145.558 145.336-66.998c7.032-15.25 13.156-31 18.438-47.126 17.404-53.548 24.216-109.048 20.216-164.918zM429.062 599.932l-93.182-182.928 145.148-145.058 182.9 93.182-32.126 202.68z" />
<glyph unicode="&#xe61d;" glyph-name="racket" d="M946.070 882.11c-52.434 52.434-123.338 77.872-199.302 77.872-101.744 0-212.552-45.686-300.296-133.434-78.684-78.684-123.464-175.806-131.932-268.428v0l-0.062-0.126c-0.782-9.062-1.25-18.062-1.376-27.060l-12.562-238.928-51.528-51.5-13.25 13.25-235.74-235.678 82.028-82.058 235.74 235.738-13.25 13.25 51.498 51.5 239.55 12.626c8.626 0.188 17.306 0.626 26.056 1.376l0.468 0.062c92.554 8.438 189.742 53.25 268.426 131.934 153.31 153.304 178.182 376.918 55.532 499.604zM714.3 354.816c-40.966-17.812-83.84-27.25-124.054-27.25-40.5 0-98.374 9.562-143.776 54.934-42.124 42.062-60.998 103.874-53.216 174.060 4.094 36.81 15.186 73.748 32.998 109.746 18.844 38.124 44.28 73.374 75.746 104.748 35.904 35.874 76.558 63.872 120.68 83.122 41 17.874 83.874 27.31 124.090 27.31v0c40.53 0 98.34-9.5 143.776-54.936 42.090-42.124 60.996-103.872 53.184-174.18-4.062-36.686-15.186-73.622-32.998-109.622-18.78-38.124-44.28-73.372-75.71-104.748-35.91-35.938-76.502-63.876-120.72-83.184z" />
<glyph unicode="&#xe61e;" glyph-name="rugby" d="M0.026 221.57c0-85.626 14.562-167.746 41.342-244.242 76.432-26.75 158.616-41.308 244.174-41.308 24.28 0 48.31 1.126 71.966 3.442l-354.076 353.292c-2.25-23.438-3.406-47.126-3.406-71.184zM982.632 918.608c-76.464 26.75-158.618 41.374-244.174 41.374-24.31 0-48.34-1.188-71.996-3.5l354.108-353.238c2.286 23.436 3.406 47.186 3.406 71.184-0.002 85.562-14.562 167.744-41.344 244.18zM18.932 388.25l434.198-433.172c273.546 63.5 488.79 278.992 551.912 552.608l-434.168 433.172c-273.518-63.438-488.758-278.93-551.942-552.608zM621.244 588.306l70.184 70.060 31.442-31.374-70.186-69.998 39.9-39.812-31.462-31.374-39.876 39.812-77.34-77.184 40.498-40.376-31.436-31.438-40.498 40.438-82.306-82.058 39.936-39.876-31.436-31.308-39.938 39.808-65.248-65.126-31.436 31.376 65.248 65.062-39.904 39.872 31.438 31.376 39.902-39.808 82.28 82.060-39.282 39.186 31.436 31.376 39.308-39.186 77.34 77.184-39.936 39.81 31.436 31.374 39.936-39.876z" />
<glyph unicode="&#xe61f;" glyph-name="shuttlecock" d="M46-17.984c61.248-61.306 160.618-61.306 221.896 0l-221.896 221.866c-61.31-61.31-61.31-160.618 0-221.866zM90.248 248.196l221.928-221.932 576.126 295.178-502.912 502.84zM1001.016 493.262c-30.65 30.624-80.304 30.624-110.932 0-2.214-2.188-4.25-4.5-6.126-6.876l-0.786 0.75c2.376 1.876 4.692 3.938 6.906 6.126 30.626 30.624 30.626 80.248 0 110.934-30.656 30.624-80.34 30.624-110.96 0-2.192-2.25-4.218-4.5-6.094-6.938l-0.812 0.812c2.376 1.876 4.714 3.876 6.906 6.126 30.626 30.624 30.626 80.278 0 110.902-30.654 30.626-80.308 30.626-110.962 0-2.188-2.188-4.214-4.468-6.094-6.876l-0.782 0.75c2.376 1.876 4.688 3.938 6.876 6.126 30.654 30.626 30.654 80.31 0 110.934-30.624 30.654-80.306 30.654-110.932 0-2.188-2.188-4.188-4.5-6.094-6.876l-0.782 0.75c2.376 1.938 4.688 3.938 6.876 6.126 30.626 30.654 30.626 80.34 0 110.964s-80.306 30.624-110.93 0c-2.188-2.218-4.218-4.53-6.126-6.936l-0.376 0.406-1.406-2.688c-4.938-6.75-8.594-14.094-11.156-21.812l-20.622-40.248 523.164-523.026 40.214 20.56c7.686 2.5 15.060 6.25 21.842 11.186l2.718 1.376-0.406 0.376c2.406 1.876 4.688 3.938 6.876 6.126 30.622 30.684 30.622 80.26 0 110.946z" />
<glyph unicode="&#xe620;" glyph-name="sight" d="M900.668 396.688h123.306v78.5h-120.994c-13.030 190.93-162.552 344.3-351.732 363.298v121.496h-78.494v-121.372c-189.682-18.56-339.734-172.118-352.862-363.422h-119.866v-78.5h122.244c23.5-179.868 168.802-321.546 350.484-339.364v-121.304h78.494v121.43c181.18 18.25 325.954 159.682 349.42 339.238zM633.682 737.366c37.374-15.876 70.934-38.436 99.804-67.31 28.876-28.876 51.532-62.498 67.308-99.874 12.812-30.312 20.714-62.186 23.498-94.996h-193.084c-10.156 40.748-40.592 73.376-79.964 86.684v197.68c28.378-3.56 56.004-11 82.438-22.184zM222.078 570.182c15.81 37.376 38.496 70.998 67.34 99.874 28.874 28.874 62.464 51.436 99.838 67.31 26.75 11.312 54.748 18.75 83.496 22.312v-197.806c-39.376-13.312-69.78-45.936-79.936-86.684h-194.206c2.812 32.81 10.656 64.684 23.468 94.994zM389.258 158.636c-37.376 15.808-70.964 38.496-99.838 67.308-28.842 28.876-51.53 62.492-67.34 99.804-9.626 22.876-16.5 46.626-20.468 70.934h197.648c13.75-31.684 40.464-56.554 73.496-67.622v-192.742c-28.75 3.568-56.75 11.006-83.498 22.318zM633.682 158.636c-26.44-11.192-54.060-18.562-82.438-22.128v192.558c32.998 11.062 59.746 35.938 73.496 67.622h196.552c-4-24.308-10.81-48.058-20.498-70.934-15.786-37.312-38.436-70.934-67.308-99.808-28.87-28.814-62.432-51.5-99.804-67.31z" />
<glyph unicode="&#xe621;" glyph-name="tabletennis" d="M183.24 501.642l15.156-254.13-198.366-198.368 113.12-113.12 198.366 198.366 254.174-15.122zM914.64 850.628c-156.21 156.182-422.134 143.556-593.94-28.25-63.84-63.874-105.65-140.62-125.056-219.93l470.758-470.808c79.308 19.438 156.148 61.186 219.928 125.056 171.834 171.826 184.49 437.754 28.31 593.932z" />
<glyph unicode="&#xe622;" glyph-name="target" d="M512.032 959.982c-282.766 0-512.006-229.242-512.006-511.982 0-282.742 229.24-511.982 512.006-511.982s511.942 229.24 511.942 511.982c0 282.74-229.176 511.982-511.942 511.982zM818.546 141.452c-39.876-39.808-86.244-71.058-137.872-92.936-53.374-22.56-110.12-33.998-168.644-33.998-58.56 0-115.338 11.438-168.71 33.998-51.622 21.876-97.996 53.126-137.804 92.936-39.842 39.876-71.124 86.246-92.964 137.872-22.562 53.308-33.998 110.126-33.998 168.682 0 58.498 11.436 115.246 33.998 168.68 21.842 51.626 53.124 97.998 92.964 137.808 39.808 39.812 86.184 71.124 137.804 92.934 53.376 22.624 110.15 33.998 168.71 33.998 58.53 0 115.276-11.374 168.644-33.998 51.626-21.812 97.994-53.124 137.872-92.934 39.81-39.81 71.060-86.184 92.872-137.808 22.626-53.436 34.060-110.184 34.060-168.68 0-58.56-11.438-115.374-34.060-168.682-21.81-51.626-53.060-98.002-92.872-137.872zM512.032 761.99c-173.428 0-314.016-140.62-314.016-313.988 0-173.432 140.586-314.050 314.016-314.050 173.396 0 313.954 140.622 313.954 314.050-0.002 173.368-140.554 313.988-313.954 313.988zM678.554 281.444c-44.498-44.496-103.624-68.934-166.524-68.934-62.902 0-122.056 24.438-166.554 68.934-44.464 44.5-68.962 103.626-68.962 166.558 0 62.872 24.498 122.058 68.962 166.494 44.498 44.562 103.652 68.998 166.554 68.998 62.9 0 122.026-24.436 166.524-68.998 44.498-44.436 68.934-103.622 68.934-166.494 0-62.938-24.436-122.058-68.934-166.558zM512.002 565.746c-64.996 0-117.744-52.748-117.744-117.746 0-65.060 52.748-117.806 117.744-117.806s117.804 52.744 117.804 117.806c0 64.998-52.808 117.746-117.804 117.746z" />
<glyph unicode="&#xe623;" glyph-name="tennis" d="M874.046 810.040c-103.088 103.088-239.206 153.056-374.294 149.806l208.646-208.556c137.056-138.058 136.806-361.098-0.876-498.78-137.68-137.682-360.764-137.994-498.756-0.81v-0.062l-208.616 208.602c-3.186-135.042 46.748-271.226 149.806-374.286 199.928-199.932 524.194-199.932 724.090 0 199.928 199.994 199.928 524.154 0 724.086zM264.076 307.384c51.876-51.626 120.806-79.934 194.052-79.876 73.184 0.126 142.088 28.688 193.836 80.496 51.808 51.748 80.372 120.636 80.496 193.854 0.124 73.216-28.188 142.182-79.808 194.054l-251.894 251.934c-91.934-20.312-179.304-66.248-250.8-137.808-71.436-71.496-117.434-158.806-137.744-250.772l251.862-251.882z" />
<glyph unicode="&#xe624;" glyph-name="biofuel" d="M241.010 802.988l-55.498 55.498-93.306-93.372 55.496-55.498zM460.75 959.982v0l-314.016-314.052v-631.414c0-43.376 35.154-78.498 78.528-78.498h628c43.376 0 78.532 35.126 78.532 78.498v945.466h-471.044zM701.208 362.754l-0.378 0.376c-15.746-78.75-86.622-143.374-167.582-148.806-32.906-2.19-62.842 5.75-87.122 21.124l-90.622-90.622-35.624 35.686 89.558 89.558c-18.124 25.31-27.718 57.626-25.312 93.436 5.406 80.934 70.028 151.806 148.774 167.556l-0.406 0.376 214.644 45.936-45.93-214.62zM853.262 802.988h-438.478l78.496 78.498h359.982v-78.498z" />
<glyph unicode="&#xe625;" glyph-name="ecology2" d="M619.15 894.36v65.622h-235.486v-65.622h-383.638v-116.312h1023.948v116.312zM161.456-63.98l701.028 0.126 82.684 762.722-866.33-0.188 82.618-762.66zM488.97 122.574h-179.336l45.56 78.996h133.776v-78.996zM769.27 205.57l-78.782-78.876h-92.59v-38.626l-68.59 78.996 68.59 79.058v-40.376h171.37l0.002-0.176zM755.864 228.070h-91.126l-66.874 116.054 68.306 39.5 89.694-155.554zM454.254 585.306l107.622-28.936 46.31-80.31 33.342 19.374-33.966-99.060-102.684 20 34.964 20.192-85.686 148.68 0.098 0.060zM441.566 562.432l45.56-79.060-66.874-116.056-68.374 39.558 89.688 155.558zM267.606 329.628l102.652 19.938 33.998-99.058-34.938 20.246-85.684-148.68-0.094 0.062-28.81 107.808 46.248 80.308-33.372 19.376z" />
<glyph unicode="&#xe626;" glyph-name="ecology" d="M682.992 187.884v80.246l-136.526-156.992 136.526-156.996v76.686h184.24l156.742 156.744v0.312zM682.932 462.75l133.082-230.49h181.276l-178.4 308.988zM567.436 646.368l-69.56-40.122 204.27-39.69 67.718 196.684-66.436-38.312-92.152 159.494-214.112 57.436-0.22-0.188zM329.448 508.872l133.086 230.494-90.682 157.056-178.398-309.050zM228.108 317.068l69.56-40.188-67.746 196.808-204.212-39.748 66.434-38.376-92.118-159.556 57.404-214.18 0.216-0.062zM466.19 179.698h-266.144l-90.652-157.058h356.796z" />
<glyph unicode="&#xe627;" glyph-name="faucet" d="M309.82 48.828l-70.746 134.058-68.592-129.996c-0.716-1.25-1.404-2.5-2.060-3.878l-0.062-0.188c-5.062-10.312-7.938-22-7.938-34.308 0-43.376 35.186-78.5 78.498-78.5 43.372 0 78.528 35.128 78.528 78.5 0 12.308-2.844 23.996-7.906 34.308l0.278 0.004zM695.458 677.43c-18.686 45.248-57.876 79.872-105.96 92.184v72.624h89.030c13.592-23.5 38.936-39.25 67.996-39.25 43.342 0 78.496 35.124 78.496 78.498s-35.158 78.498-78.5 78.498c-29.060 0-54.404-15.812-67.996-39.25h-256.554c-13.56 23.436-38.936 39.25-67.962 39.25-43.342 0-78.53-35.124-78.53-78.498s35.188-78.498 78.53-78.498c29.030 0 54.404 15.75 67.962 39.25h89.030v-72.622c-48.748-12.5-88.34-47.874-106.652-94.060-136.776-15.75-242.958-131.87-242.958-272.926h-21.374c0 0-0.034 0-0.062 0-32.030 0-58.028-25.938-58.028-58 0-32.058 26-57.996 58.028-57.996v0h197.96c32.058 0 57.998 25.938 57.998 57.996 0 32.062-25.938 58-57.998 58 0 0 0 0-0.062 0h-19.436c0 31.5 12.25 61.058 34.498 83.308 20.092 20.126 46.186 32.062 74.278 34.186 28.748-36.312 73.212-59.56 123.054-59.56 50.060 0 94.626 23.436 123.374 59.874h268.456v156.994h-246.618z" />
<glyph unicode="&#xe628;" glyph-name="flower" d="M454.974 143.2v-207.182h116.058v208.242c-17.532-9.626-37.688-15.126-59.030-15.126-20.56 0-39.966 5.126-57.028 14.066zM826.018 488.122c43.346 0 78.496 35.186 78.496 78.622s-35.15 78.684-78.496 78.684h-9.876c-0.5 1.812-1 3.688-1.532 5.562l8.594 4.938c37.556 21.75 50.404 69.81 28.714 107.434-21.652 37.624-69.686 50.498-107.21 28.812l-8.688-5.062c-1.312 1.438-2.654 2.75-4.034 4.062l4.998 8.688c21.688 37.624 8.844 85.684-28.748 107.434-37.53 21.686-85.528 8.812-107.208-28.812l-4.938-8.562c-1.876 0.5-3.718 1-5.598 1.5v9.936c0 43.374-35.152 78.624-78.496 78.624-43.374 0-78.496-35.25-78.496-78.624v-9.936c-1.844-0.5-3.718-1-5.562-1.5l-4.968 8.562c-21.656 37.624-69.684 50.498-107.244 28.812-37.528-21.75-50.372-69.81-28.716-107.434l4.968-8.688c-1.344-1.312-2.656-2.626-4-4.062l-8.656 5.062c-37.53 21.686-85.59 8.812-107.276-28.812-21.656-37.624-8.782-85.684 28.748-107.434l8.594-4.938c-0.532-1.876-1-3.75-1.5-5.562h-9.906c-43.342 0-78.498-35.248-78.498-78.684s35.156-78.622 78.498-78.622h9.906c0.5-1.876 0.968-3.688 1.5-5.562l-8.594-4.936c-37.53-21.75-50.404-69.81-28.748-107.432 21.686-37.626 69.746-50.5 107.276-28.812l8.656 5c1.344-1.376 2.656-2.688 4-4.058l-4.968-8.626c-21.656-37.626-8.812-85.688 28.718-107.436 37.56-21.688 85.588-8.81 107.244 28.81l4.968 8.558c1.844-0.5 3.718-1 5.562-1.5v-9.938c0-43.374 35.124-78.624 78.496-78.624 43.34 0 78.498 35.25 78.498 78.624v9.938c1.876 0.5 3.716 1 5.594 1.5l4.938-8.558c21.688-37.626 69.686-50.498 107.21-28.81 37.592 21.748 50.436 69.808 28.748 107.436l-4.998 8.626c1.376 1.376 2.716 2.686 4.034 4.058l8.688-5c37.53-21.688 85.556-8.808 107.21 28.812 21.69 37.626 8.842 85.682-28.714 107.374l-8.594 5c0.532 1.876 1.032 3.688 1.532 5.562l9.874-0.006zM669.028 527.434h-5.5c-0.218-0.812-0.468-1.688-0.692-2.5l4.786-2.75c18.75-10.876 25.186-34.936 14.344-53.686-10.812-18.812-34.81-25.25-53.626-14.438l-5.558 3.188c-0.5-0.438-1-0.938-1.5-1.438l3.214-5.562c10.844-18.81 4.406-42.874-14.376-53.75s-42.782-4.376-53.626 14.376l-3.438 6c-0.594-0.126-1.218-0.312-1.812-0.442v-6.938c0-21.75-17.562-39.31-39.248-39.31s-39.248 17.56-39.248 39.31v6.938c-0.594 0.126-1.188 0.312-1.782 0.5l-3.468-6.058c-10.844-18.75-34.842-25.25-53.622-14.376s-25.218 34.938-14.374 53.75l3.25 5.562c-0.532 0.5-1.032 1-1.5 1.438l-5.592-3.188c-18.78-10.812-42.78-4.376-53.654 14.438-10.812 18.75-4.406 42.81 14.406 53.686l4.78 2.75c-0.25 0.812-0.468 1.688-0.686 2.5h-5.5c-21.686 0-39.28 17.626-39.28 39.31 0 21.75 17.592 39.374 39.28 39.374h4.468c0.25 1 0.5 2 0.75 3l-3.812 2.25c-18.812 10.812-25.218 34.874-14.406 53.748 10.876 18.75 34.874 25.186 53.654 14.374l3.094-1.812c0.812 0.876 1.656 1.75 2.53 2.562l-1.78 3.062c-10.844 18.812-4.406 42.874 14.374 53.748 18.78 10.812 42.778 4.376 53.622-14.438l1.468-2.562c1.25 0.376 2.532 0.688 3.782 1v3c0 21.688 17.562 39.312 39.248 39.312 21.688 0 39.248-17.624 39.248-39.312v-3c1.284-0.312 2.534-0.626 3.75-1l1.5 2.562c10.846 18.812 34.842 25.25 53.626 14.438 18.78-10.876 25.212-34.936 14.374-53.748l-1.75-3.062c0.844-0.812 1.688-1.688 2.536-2.562l3.058 1.812c18.812 10.812 42.81 4.376 53.626-14.374 10.842-18.876 4.406-42.936-14.344-53.748l-3.844-2.25c0.25-1 0.532-2 0.782-3h4.468c21.654 0 39.212-17.626 39.212-39.374 0.004-21.686-17.554-39.31-39.212-39.31z" />
<glyph unicode="&#xe629;" glyph-name="gasstation" d="M987.042 881.484v78.498h-44.376v-78.498h-78.496v78.498h-44.402v-78.498h-31.282v-44.436c0-50.186 31.404-93.058 75.684-109.934v-361.426h-0.058c-1.126-43.308-36.626-78.122-80.152-78.122-36.966 0-68.152 25.126-77.402 59.246v613.17h-628.034v-866.97h-78.496v-156.992h785.024v156.992h-78.496v136.184c22.906-12.812 49.31-20.126 77.402-20.126 87.652 0 158.708 71.058 158.708 158.684v0 357.362c47.186 15.312 81.308 59.686 81.308 111.934v44.434h-36.932zM191.736 840.486h392.514v-392.486h-392.514v392.486z" />
<glyph unicode="&#xe62a;" glyph-name="globe1" d="M559.248 601.808c0.438-0.062 0.812 0.312 1.25 0.312 1.312 0.062 5.5-2.812 6.938-3.376 0.442-0.25 0.942-0.312 1.376-0.562 0.812-0.5 1.44-1.312 2.312-1.75 0.25-0.126 0.75-0.312 1.438-0.188 0.498 0.062 1.248 0.188 1.998 2.75 0.312 1-0.876 1.5-0.75 2.5 0.188 1.438 1.312 2.5 1.562 3.876 0.126 0.626-0.062 1-0.626 1.062-0.126 0-0.19 0-0.25 0-0.376-0.062-0.69-0.312-1.062-0.376-1.25-0.126-1.126 0.438-2.188-0.188-0.5-0.312-1-0.688-1.626-0.876-0.626-0.126-1.126 0.25-1.75 0.188-0.812-0.062-1.376-0.938-2.188-0.876-1.188 0-1.938 1-3 1.188-0.688 0.126-1.126-0.626-1.75-0.562-0.688 0.062-0.5 0.312-1.062 0.5-0.812 0.25-1.812-2.812-1.626-3.062 0.25-0.5 0.688-0.562 0.938-0.562 0.004 0.002 0.004 0.002 0.066 0.002zM471.504 726.178c-0.096-0.126-0.19-0.25-0.25-0.376-0.126-0.25-0.062-0.562 0.188-0.75 0.25-0.126 0.562-0.062 0.75 0.126 0.25 0.25 0.562 0.626 0.938 1.062 0.344 0.438 0.468 0.562 1 0.812 0.406 0.188 0.812 0.376 1.25 0.5 0.156 0.062 0.344 0 0.5-0.062 0.126-0.126 0.188-0.312 0.188-0.438-0.032-1 0.284-2.062-0.688-2.812-0.562-0.5-1-0.812-1.344-1.126-0.344-0.25-0.406-0.75-0.218-1.126 0.19-0.376 0.626-0.562 1.062-0.438 0 0 0 0 0.034-0.062 0.032 0 0.094-0.062 0.094-0.126 0.25-1.126 0.31-1.126 1.81-0.188 0.062 0 0.126 0 0.19 0 0.032 0 0.060 0 0.060-0.062 0.19-0.376 0.562-0.688 0.94-0.876 0.594-0.312 1.032-0.876 1.156-1.5 0-0.062 0.032-0.062 0.032-0.126 0 0 0-0.062 0.032-0.126 0.534-1.562 0.094-3.312-1.094-4.5s-2.938-1.562-4.532-1.062h-0.034c-0.25 0.062-0.532 0-0.688-0.25-0.188-0.25-0.156-0.5 0.034-0.75 0.154-0.188 0.344-0.376 0.344-0.626-0.062-1-1.312-0.626-1.69-1.312-0.032-0.062-0.060-0.126-0.060-0.188 0-0.126 0.060-0.25 0.126-0.312 0.126-0.126 0.25-0.126 0.376-0.126 0.56 0.126 1.032 0.626 1.626 0.688 1.126 0.062 0.312-2.812-0.062-3.25-0.438-0.438-3.31-1.438-4.25-1.626-0.56-0.062-0.966-0.126-1.188-0.312-0.188-0.188-0.282-1.438 0.534-1.812 1.216-0.562 2.404 0.5 3.594 0.188 1.188-0.312 2.216-0.938 3.032-1.812 0.094-0.062 0.156-0.126 0.25-0.188 0.406-0.126 0.844-0.126 1.25 0.062 0.094 0.062 0.188 0.062 0.284 0.126 0.31 0.312 0.626 0.438 1 0.438 0.25 0 0.5-0.188 0.594-0.438s0-0.5-0.218-0.688c-0.906-0.626-1.812-1.25-3.062-1.126-0.656 0.062-1.31 0.062-2 0-2.032-0.188-3.966-1.126-5.438-2.626-0.5-0.5-1.032-1-1.5-1.5-0.25-0.25-0.282-0.686-0.062-0.936 0.25-0.312 0.626-0.376 0.94-0.188 0.25 0.126 0.466 0.312 0.75 0.438 0.876 0.562 2.466 1.186 3.344-0.5h0.032c0.126 0 0.282 0 0.376 0.062 1.188 0.876 1.81 2.562 3.5 2.686 1.25 0.126 2.188-1.062 3.438-0.812 1.406 0.25 2.562 1.376 4.126 1.312 0.562-0.062 2.126-0.5 2.284-0.562 0.406-0.25 0.406-0.25 2.716-0.312 0.94 0 1.656-0.812 2.562-0.938 1.126-0.188 2.126 0.5 3.248 0.376 0.062 0 3.312 0.626 3.25 2v0.062h-0.062c-1.156 0.688-1.938 1.938-2.060 3.25-0.034 0.126 0.032 0.188 0.126 0.188 0.126 0.062 0.25 0.062 0.312 0s0.126-0.126 0.188-0.188c0.376-0.25 0.594-0.25 0.75-0.188 0.75 0.562 1.626 1.126 2.438 1.562 0.44 0.25 0.718 0.812 1 1.812 0.062 0.25 0.344 1.876-1.626 2.938l-0.062 0.062c-0.126 0.062-3.876 2-4.906 1.376-0.716-0.312-0.716-0.312-1.964 0.312-0.062 0.188 0 0.376 0.154 0.5 1.466 1.126 1.466 1.188 1.438 1.5-0.062 0.688-0.406 1.188-0.844 1.688-0.376 0.376-0.404 1-0.096 1.438h0.034c0.25 0.376-1.186 3.5-1.216 3.562-0.094 0.062-0.156 0.126-0.344 0.126-0.626-0.062-1.282-0.062-1.876-0.062-0.096 0-0.19 0-0.346 0-0.032 0-0.032 0-0.032 0-0.032 0.062-0.062 0.126-0.032 0.188 0.216 0.75-0.562 1.25-0.626 2-0.062 0.688 0.126 1.438 0.188 2.126 0.062 0.626 0 1.376-0.216 2.062-0.718 2.5-0.626 5.188 0.282 7.626 0.406 1.062 0.906 2 1.534 2.876 1.466 2-5.062 1.75-6.312 1.688-0.094 0-0.188 0.062-0.25 0.126-0.034 0.126-0.034 0.188 0 0.312 0.344 0.438 0.376 1.062 0.812 1.5 0.626 0.5 1.438 0.688 2.126 1.126 1.5 0.938 0.25 1.5-0.312 1.688-1.31 0.312-2.688 0.5-4.060 0.5-0.5 0-1.034-0.062-1.562-0.25-0.344-0.126-0.75-0.562-1.126-1.126-0.844-1.188-1.81-2.126-2.938-3-0.032-0.062-0.094-0.126-0.156-0.188-0.282-0.188-0.716-0.25-1.032-0.062-0.188 0.062-0.438 0.062-0.626 0-0.060-0.062-0.094-0.062-0.126-0.126-0.376-0.188-0.688-0.438-0.876-0.812-0.25-0.376-0.188-0.938 0.126-1.25 0.344-0.376 0.876-0.438 1.282-0.25h0.034c0.032-0.126 0.032-0.312-0.034-0.438-0.216-0.5-0.312-1.126-0.532-1.688-0.034-0.062-0.062-0.062-0.126-0.062-0.126-0.062-0.216 0-0.282 0.062-0.284 0.438-0.406 0.438-0.594 0.438 0 0-0.062 0-0.062-0.062-0.782-0.126-1.312-1.938-1.312-2.5 0.034-0.188 0.062-0.312 0.19-0.376 0.966-1.122 1.028-2.746 0.156-3.996zM452.47 704.616c1.688 0.75 3.25 1.75 5.034 2.25h0.032c2.468 0.688 4.594 0 5.312 0.938 0.716 0.938 1.966 2.562 2.532 3.938 0.25 0.626-0.438 1.562 0.438 2.062 1 0.562 0.126 1.562 0.376 2.312 0.688 2 1.126 2.062 1.938 2.188 0.784 0.126 1.5 0.188 1.75 0.624 1.312 1.876-3.188 7.188-6 6.5-2.876-0.75-5.216-5-6.188-4.938-1.25 0.062-1.812 0.126-2.626-0.562-0.626-0.438-0.716-1.25-1.188-1.874-0.562-0.688-1.282-1.25-1.876-1.938-0.44-0.626-0.626-1.126 0.032-1.688 0.5-0.438 0.782-0.688-0.656-2.562-1.188-1.5-3.186-2.376-3.998-4.25-0.312-0.688-0.25-2.062-0.188-2.562 0.404-2 3.432-1.188 5.276-0.438zM543.936 725.616c-0.286-0.312-0.312-0.5-0.562-0.782 2.624 0.188 3.968 0.438 0.562 0.782zM512.002 959.982c-282.736 0-511.976-229.242-511.976-511.982 0-282.802 229.24-511.982 511.976-511.982 282.796 0 511.972 229.18 511.972 511.982 0 282.74-229.176 511.982-511.972 511.982zM512.002 52.078c-119.684 0-226.928 53.060-299.548 136.994-0.188 0.812-0.468 1.626-0.75 2.376-0.876 2.25 8.936 15.188 13.124 22.126 0.312 0.626 2.876 0.938 5.94-1.25 2.466-1.69 6 2.31 5.656 3.75-1 4.5-1.034 5.25-0.468 9.376 0.968 7-0.938 24.434-1.782 26.746-0.468 1.31-0.784 2.626-0.94 3.938-0.156 1.376-0.216 2.69-0.156 3.94 1.19-15.5 1.19 16.498 8.312 22.248 0.75 1.25 1.5 2.5 2.25 3.75 3.75 6.376 7.25 12.688 6.968 14.812-1.218 9.562-31.626 44.436-40.248 50.874-6.784 5.126-12.968 13.626-16.156 16.5-1.188 1.062-2.094 2.5-3 4-1.188 1.936-3.312 3.124-5.562 3.124-2.282 0-12.124 13.812-8.624 20.376 0.5 8.94-17 37.44-32.5 54.874-0.5 0.626-13.126 37.686-12.936 37.936 1.376 1.626 0.5 9.562 0.376 11.25-0.188 3.25-3.188 5.874-3.75 5.5-0.844-0.626-3.938 0.688-4.062 1.688-0.376 1.876-1.466 3.5-2.938 4.562 14 86.872 56.31 164.306 117.152 222.554 2.342 0.626 5.28 0.876 5.28 0.876 2.312 0.438 8.906-1.062 10.812 0.5 1.626 1.312-0.438 1.75 0.5 3.188 0.906 1.312 1.688 2.75 2.312 4.25 0.5 1.312 2.060 1.688 3.25 2.376 2 1.25 0.060 1.25-0.312 1.876-0.312 0.5 0 2.376 0.75 2.5h0.062c1.032-1 2.5-1.374 3.876-1.062 1.218 0.25 1.656 0.686 2 1.436 0.25 0.5 0.688 0.876 1.25 1.062 1.784 4.25-1.688 4.938-5.216 4.626 1.156 0.938 2.344 1.876 3.532 2.876 0.562-0.062 1.062 0.062 1.562 0.25 3.938 1.5 8.376-0.438 9.938-4.312 0.406-1.062 1.312-1.876 2.376-2.188 1.31-0.312 2.56-0.688 3.938-0.188 7.062 2.626 9.126 0.376 15 3h0.062c7.688 3.438 8 20.436 18.466 29.812 1 0.938 2.126 1.75 3.28 2.438 1.94 1.25 3.19 3.126 4.5 4.876 0.626 0.876 1.346 1.688 2.096 2.438 0.876 0.938 1.032 2.312 0.404 3.376-0.094 0.126-0.188 0.25-0.282 0.376 29.186 15.374 60.528 27.25 93.432 34.936-0.216-0.062-0.466-0.188-0.688-0.25-0.218-0.126-0.344-0.376-0.282-0.626 0.094-0.626-0.438-1.812-0.094-2.126 0 0 0 0 0.032 0-0.126-0.126-11.686-8-16.030-8.25h-0.034c-5.25-0.25-14.53-5.812-16.25-6.626-3.5-1.75-6.656-4.688-8.716-6.938-1.034-1.188 0.78-1.562 2.216-2.126 0 0-11.28-7.874-12.78-10.062-0.284-0.438-0.284-1-0.034-1.438h0.062c-2.688-2.688-1.406-8.126-1.126-8.688 0.438-0.876-0.562-2.626-0.376-2.626 0.5-0.126-1.562-2.188-1.876-2.626-0.5-0.75 0.154-2.688 1.25-2.626 1.126 0.062 1.81 0.75 2.876 1.938 0 0 2.876 1.626 4.784 3.188 1.876 1.562 5.654 2 7.092 4.626 0.75 1.438 4.31 2.5 4.466 2 0.156-0.688 8.906 3.25 8.594 4.75-0.25 1.438 0.562 1.562 1.5 1.188 0.626-0.25 1.156-0.062 1.562 0.25 2.626 2.25 6.626 4.876 9.936 4.062 0.812-0.25 1.69-0.126 2.376 0.312 3.344 1.876-0.376-0.562 0.126-1.312 0.126-0.188 0.376-0.312 0.562-0.188 1.438 0.562 2.938 0.812 4.438 0.876 2.126 0 8.342 2 8.468 2.062 0.032 0 0.032 0 0.032 0 6.69 3.436 9.44 5.626 10.812 4.686 0.438-0.312 0.688-0.812 0.626-1.312 0 0 0.032 0 0.060-0.062 1.062-0.75 2.25 0 3.534 0.376 0 0 1.032-1.126 5.062-1.062-0.968-2.436 40.964 6.626 67.528 28.686 4.31 3.562 8.938 6.938 13.688 10.188 46.998-1.438 91.994-11.126 133.552-27.624 0.44-1.376 3.376-2.938 4.31-3.876 0.562-0.626 0.626-1.562 0.062-2.188-0.062 0-0.062-0.062-0.062 0-1.876 0.438-3.876-0.062-5.31-1.312-1.438-1.25-5.938-3.188-6.496-3.688-0.626 0.188-1.312 0.188-2-0.062-2.626-1-4.126-6-3.562-7.812 0.188-0.75-2.062-3.188-3-2.876-0.562 0.188-2.062-1.126-1.312-1.688 0.876-0.688-2.25-2.25-2.812-2.062-3.25 1-5.126-3-5.938-3.938-0.5-0.626-7.876-7.626-3.75-7.626 1.126 0 0.188-2.938-2.75-1.876-2.562 0.938-5 2.25-7.062 3.938-1.376 1.062 7.126 8.812 7.376 11.25 0.312 2.438-16.248 5.688-21.748 8.25-4.75 2.188-8.688 1.812-9.876 3.374-0.5 0.688-0.75 1.562-0.562 2.438-2.562 0.5-4.188 0.812-5.312 1-1.062 0.25-4.25 0.312-8.626-1.062-9.44-3-18.44-11.812-18.44-11.812s-1.81-3.062-3.56-5.062c-1.562-1.812-2.75-4-4.562-5.688-0.688-0.626-1.188-1.5-1.376-2.438-0.938-0.25-1.688-1-1.938-1.938-1.126-4.062-4.376-10.186-21.654-17.436h-0.036c-5.058-2.188-8.25-7.25-7.964-12.812 0.094-1.876 0.562-3.562 1.344-5.188 0.692-19.312 0.692-19.312 26.938-7.126 1.25-1.75 2.626-4 3.626-6.188s1.75-4.25 1.808-5.688c1.442-1.5 12.812-0.75 15.126 3.626 1.94 3.75-1 7.688 0.44 11.438 0 0 0.060 0 0.060 0.062 1.812 4.438 2.25 9.25 1.312 13.936-0.376 2.188 6.436 15.5 7.624 17.312 2 3.124 10.626 9.624 11.188 7 0.25-0.876 0-1.876-0.558-2.562-1.442-1.812-2.062-4.312-3.312-6.25-2.558-3.876-3.126-8.75-1.5-13.126 1.442-3.812 9.312-7.312 10.192-6.75 0.058 0 0.058 0 0.058 0.062 0 0 14 3.562 18.436 2.626 0.442-0.126 0.75-0.438 0.876-0.876 0.126-0.376-0.062-0.812-0.376-1.126-5.306-4.75-6.374-1.562-11.936-2.624-1.938-0.312-3.438-1.876-3.688-3.812-0.192-1.75 0.626-3.438 2.126-4.376 0.25-0.188 0.438-0.5 0.376-0.812 0 0-1.19-3.188-2.75-3.876-1.19-0.5-2.5-0.5-3.626 0-0.876 0.438-1.876 0.312-2.69-0.188-1.626-1.062-1.75-7.812-1-10 1.25-3.562-5.376-10-8-9.5-5.438 1-11.060 0.126-15.936-2.438-2.312-1.25-5.126-0.812-7.062 0.938-1.312 1.188-0.062 1.688-1.688 2.688-0.312 0.25-8.812-3.312-9.188-3.438s-1.75 0.688-1.812 1.126c0 0.062 0 0.062 0 0.062-0.188 1.626-5.126 2-5.876 4.936-0.348 1.282 0.402 3.218 2.626 5.906-5.282-0.438-16.092-0.782-5.906-1.782-0.406-2-0.468-4.186-0.156-6.312 0.532-7.188-7.652-6.312-8.376-7.126 0-0.062 0-0.062 0-0.062-1.060 0-2.56 0-5.060-0.188-1.062-0.126-2.062-0.688-2.69-1.5-0.060-0.126-0.094-0.25-0.060-0.376 0.060-0.562-0.312-1.126-0.906-1.25-1.938-0.5-3.716-1.438-5.156-2.75-3.438-3.062-5.156-4.376-8.75-6.376-2.5-1.376-4.716-3.186-6.626-5.374-0.75-0.876-2.438-1.876-6.376-4.126-0.376-0.188-0.626-0.562-0.75-1-0.188-0.812-0.876-1.5-1.748-1.626-3.56-0.5-4.56 0.376-6.56 1.688-1.062 0.688-1.876-0.75-1.596-1.626 0-0.062 0-0.062 0-0.062 0.284-0.876 0.096-1.876-0.466-2.626-0.5-0.688-1.376-1.188-2.312-1.25-2.438-0.126-4.844 0.438-7 1.5-0.188 0.126-0.438 0.126-0.626 0.062-3.562-1.126-5.626-5.376-4.75-5.438 6.126-0.688 6-1.75 8.438-3.312 0.688-0.438 1.188-1.188 1.5-1.938 0.376-0.812 0.594-1.688 0.876-2.562 11.94-8.874-20.060-8.874-25.626-20.936-0.718 0.376-1.438 0.688-2.126 1-24.308 11-24.248 9.812-22.464-34.312-0.156-0.688 2.156-9.624 3.032-10.186 0.656-0.438 2.812 0.562 4.094 1.126 0.968 0.376 1.534 0.626 3.626-1.812 1.966-2.188 0.438-7.376 4.562-7.438 1.094 0 1.75 1.062 2.032 1.688 0.312 0.75 0.312 0.75 8.248 2.5 3.5 0.75 6.906-1.5 10.438-0.376 2.688 0.812 2.812 4.376 5.562 5.126 1.876 0.562 3.812-0.438 5.594 0.438 0.968 0.562 0.094 3.5 1.156 4.438 1.626 1.436 2.282 3.686 1.626 5.75-0.31 0.938-0.25 1.25-0.060 2 0.156 0.812 16.154 11.938 21.624 15.126 4.876 2.75 1.5 10.186 7.188 12.436 5.284 2.126 27.56 5.25 29.060 5.376 1.562 0.062 3-0.312 4.188-0.876 1.812-0.876 3.376-2.188 4.438-3.938 5.188-8.312 23.062-21 24.562-22 1.5-1.062 3.062-2.188 9.56-9.938 0.438-1.188 0.438-2.25-0.562-2.626-1.376-0.624-1.376-1-1.376-1.5 0.062-1.126-0.876-2.126-0.188-3.25 0.188-0.312 0.876-1.312 2.438-0.562 1.812 0.938 1.126 1.25 1.812 2.688 1.812 3.562 1.75 3.75 1.688 3.75 0.626 0.438 1.75 0.062-8.938 20.75-1.496 0.062-2.936 0.438-4.246 1.062-1.312 0.688-2.44 1.688-3.312 2.938l-10.31 14.936c-0.376 0.626-0.812 1.312-1.19 2-0.688 1.188-0.060 2.688 1.19 3.188 0.060 0 0.126 0.062 0.25 0.062 1.938 0.626 4.126-0.188 5.25-1.938 0.56-0.876 1.126-1.812 2.188-1.75 1.25 0.062 2.44-0.25 3.5-1 0 0 4.376-3.25 8.81-6.5 2.188-1.626 4.438-3.188 23.688-25.312 0.442-0.376 1.062-0.812 1.442-1.188 0.376-0.438 0.5-0.562 1.308-1.938 0.312-0.562 2.562-2.562 2.562-2.562 0.126-0.126 0.376-0.25 0.688-0.25 0.062 0 0.062 0 0.062 0 0.688 0 1.25 0.25 1.876 0.188 1.876-0.126 4.746-2.5 6.996-1.438 0.192 0.126 2.5 1.438 2.5 1.438v0.062c5.376 2.438-1.25 4.938-1.438 7.376-0.062 0.876 0.25 1.562 0.812 1.938s1.25 0.438 2 0.126c0.376-0.188 0.876-0.126 1.188 0.126 0.438 0.312 0.75 0.75 0.876 1.312 0.558 2.812 3.438 3.626 6.308 3.626 2.376 0 4.692-0.626 6.75-1.75 0.876-0.5 1.812-0.688 2.812-0.688 0.938 0.062 1.812 0.25 2.688 0.562 0.812 0.312 1.626 0.75 1.75 0.626-0.376-0.312-0.876-0.626-1.5-1s-1.376-0.75-2.25-1.062h-0.058c-1.5-0.626-2.312-2.188-1.942-3.688 0.692-3.062 7.126-6.126 2.942-10.062-0.062-0.062-0.126-0.126-0.126-0.126 2.312-1 4.312-2.686 5.562-4.812 1.062-1.812 2.75-3.312 4.688-4.438 1-0.626 2.062-1.126 3.126-1.5-0.692-5.876 31.306-5.876 44.304-5.126 0.25-1.126 0.562-2.312 0.94-3.5 2.69-9.436 6.060-18.874-3.876-27.124-1.188-0.938-31.876-2-45.434-2.876-7.812-0.562-8.938 2.25-11.376 2.312 0 0 0 0-0.058 0 0 0 0 0-0.062 0-2.626-0.062-3.126-0.062-7.062 0.812-2.438 0.562-8.938 9.938-17.876 2.75-2.56-2.126-4.060-4.812-3.938-6.376 1.060-22.25-35.626 3-40.308 4.376-5.188 1.5-21.876 8.062-23.376 8.126-0.532 0.062-0.81 2.812 0.876 4.5 4.438 4.438 5.812 6.25 4.376 8.624-3.688 6.188-4.5 9.876-4.532 9.938-1.156 1.438-2.968 2.25-4.844 2.126-55.308-3.5-67.248-5.126-78.152-10.312-0.968-0.438-2.938-1.376-6.032-0.062-2.376 1.062-4.998 1.188-7.466 0.312-3.594 2.376-8.282 2.126-11.594-0.562l-18.030-14.686c-1.846-1.5-3.406-3.25-4.656-5.25-3.25-5.126-3.062-9-2.968-10.812 0.282-5.812-16.218-16.436-24.906-15.436 0 0-0.032 0-0.062 0v0.062c-4-1.626-7.436-3.062-27.498-31-11-15.312-11-15.312-8.782-19.624 1.188-2.25 3.626-6.938 1.782-19.686-0.094-0.812-8.5-29.25-8.5-29.25-2.154-7.186 3.812-20.936 3.812-20.936s2.284-4.312 2.534-4.876c1.656-3.75 3.966-24.688 10.156-34.25 0.966-1.5 33.126-28.936 37.842-29.874 13.936-2.626 43.964-8.5 44.686-8.562 15.874-1.060 28.904 12.126 44.28 13.19 3.562 0.25 10.936-2.060 12.81-12.81 1.376-8.060 13.75-5.498 19.562-3.81 2.656 0.81 5.466 0.626 8.034-0.376 0.032 0 0.032-0.060 0.032-0.060v-0.062c0.19-1.75 5.626-3.25 6.154-4.060 3.156-4.812 0.938-30.25-4.532-34.626-0.594-0.44-1.060-1.062-1.344-1.75 5.902-12.19 18.84-18.312 18.84-18.312 1.876-2 13-21.186 14.192-29.686 1.808-12.876 1.808-10.438 2.126-11 5.688-9.248 0.75-13.688-2.75-15.438-1.062-0.56-11.376-24.56-11.312-28.56 0-3.69 6.062-7.19 8.19-10.19l13.688-19.126c0.25-0.31 0.5-0.626 0.75-0.938 4.748-6-2.56-14.436 1.69-20.436 1.376-1.942 4.75-9.812 6.558-11 2.75-1.876 14.376-18.69 10.942-21.56-0.376-0.312-0.376-1.126-0.192-1.562 1.062-3 15.126-7.75 20.312-5.562 7.748 3.312 23.936 5.876 30.56 5.812 9.126-0.062 52.996 31.436 49.556 42.31-0.060 0.126-0.060 0.312-0.060 0.438h0.060c5.126 6.060 19.998 13.56 19.626 14.31 0 0 0 0-0.062 0 1.938 4.31 6.438 25.56 12.626 30.126 5.25 3.876 12.938 9.438 24.188 17.56 7 5.126 10.5 8.69 9.938 30.626-0.562 20.124-4.126 35.808-5.312 39.186-1.688 4.81-1.25 5.688 0.69 9.188 5.626 10.44 37.808 56.936 43.558 62.248 0.25 0.25 0.5 0.5 0.69 0.75 10.5 12.248 16.5 28.81 20.308 44.376 0.812 3.31 2.062 6.44 3.062 9.69 0.25 0.876 0.626 4.126 0.938 7.938 0.126 1.25 0.25 2.562-16.186 10.44-0.688-0.25-1.438-0.5-2.126-0.75-10.94-3.812-23.69-7.69-25.060-6.376-2.062 1.876-3.376 4.25-3.94 7.060-0.558 2.876-2.058 5.56-4.308 7.69-11.876 11.060-35.126 18.248-40.626 48.31-0.876 4.5-33.938 52.31-40.686 61.936-0.75 1.062-1 2.438-0.688 3.688 0 0.062 0 0.062 0 0.062 1.31-3.25 6.436-9.126 9.56-12.376 0.876-0.938 2.126-1.312 3.188-0.562 1.188 0.938 0.376 2.312 0.688 6.626 0.062 1.25 1.876 1.376 2.062 0.126 0.438-2.688 1.75-5.188 3.75-7.126 4.376-4.188 9.75-12.124 13.25-17.624 2.188-3.376 5.126-6.126 8.626-8.126 5-2.812 6.5-7.5 10.126-18.436 4.188-13.062 19.5-16.188 25.126-27.936 4.75-9.938 16.248-27.934 17.498-27.684 9.25 2.184 18 9.308 20.626 11.376 0.938 0.688 1.81 1.376 2.688 2.062 0.812 0.688 1.626 1.312 2.376 1.938 37.058 11.25 37.058 11.25 36.058 27.936 0 0.688 0.062 1.376 0.062 2.126 0 5.188-0.25 11.938-0.562 20.562 0.062 0.688 0.19 1.376 0.312 2.062 1.562 10.688 2.188 24.25 3.75 27.124-0.438 0.812-1.062 1.562-1.812 2.25-0.81 0.626-1.75 1.25-2.876 1.812-3.692 1.75-8.062-1-11.5 1.938 0 0 0 0.062-0.062 0.062-1.876 1.626-4.376 2.25-6.75 1.75-2.438-0.5-4.5-2.062-5.562-4.312 0 0-0.060 0-0.060-0.062-0.94-1.938-2.748-3.25-4.876-3.562-3.438-0.5-3.062-1.062-5.688-3.062-4.626 2.376-7.75 3-19.75 19.436-0.5 0.75-1 1.5-1.562 2.25-6.062 8.936 25.938 8.936 22.126 1.562 0.876-0.188 1.75-0.376 2.626-0.562 0.876-0.126 1.688-0.188 2.5-0.126 1.562 0.062 2.81 0.438 3.376 1.374 26.56 6.5 27.31 6.688 62.558 12.312 1.062 0.126 2.062 0.312 3.126 0.438 20.124-4.75 24.436-5.812 20.686-16.75-0.312-1-0.75-2.062-1.188-3.25 6.126-18.062 6.126-18.062 3.688-45.124 0.188-1.25 0.376-2.5 0.5-3.75 2.376-17.562 3.626-35.562 3.626-53.748-0.034-218.69-177.274-395.934-395.95-395.934z" />
<glyph unicode="&#xe62b;" glyph-name="globe2" d="M512.002 959.982c-282.77 0-511.976-229.242-511.976-511.982 0-282.802 229.208-511.982 511.976-511.982 282.734 0 511.972 229.18 511.972 511.982 0 282.74-229.238 511.982-511.972 511.982zM371.068 818.050c-24.030-30-45.152-63.936-62.748-100.996-20.56 8-40.092 17.186-58.622 27.5 35.408 31.31 76.436 56.372 121.37 73.496zM195.204 685.492c26.186-15.876 54.434-29.75 84.372-41.5-15.532-48.874-25.436-101.558-28.624-156.744h-132.932c7.25 73.936 34.872 141.934 77.184 198.244zM118.020 408.752h132.93c3.188-55.186 13.092-107.872 28.624-156.804-29.936-11.69-58.186-25.626-84.372-41.5-42.31 56.37-69.932 124.308-77.182 198.304zM249.702 151.452c18.53 10.308 38.060 19.434 58.622 27.496 17.594-37.124 38.716-71.054 62.748-101.054-44.938 17.12-85.966 42.182-121.37 73.558zM472.754 84.076c-16.126 14.438-31.438 31-45.716 49.626-16.030 21-30.31 43.808-42.716 68.434 28.75 6.5 58.31 10.75 88.436 12.692l-0.004-130.752zM472.754 293.506c-40.998-2.376-80.624-8.5-118.306-17.812-13.532 42.5-21.876 87.060-24.876 133.058h143.182v-115.246zM472.754 487.248h-143.182c3 45.936 11.344 90.498 24.876 132.996 37.686-9.312 77.308-15.436 118.306-17.812v-115.184zM472.754 681.118c-30.126 2-59.686 6.25-88.436 12.75 12.406 24.562 26.688 47.436 42.716 68.372 14.282 18.624 29.592 35.186 45.716 49.624l0.004-130.746zM905.98 487.248h-132.932c-3.186 55.186-13.126 107.872-28.654 156.744 29.966 11.75 58.216 25.624 84.402 41.5 42.312-56.31 69.904-124.308 77.184-198.244zM774.268 744.552c-18.534-10.312-38.034-19.5-58.594-27.5-17.626 37.060-38.712 70.998-62.778 100.996 44.97-17.122 85.968-42.184 121.372-73.496zM551.248 811.862c16.126-14.436 31.438-31 45.688-49.624 16.058-20.936 30.344-43.81 42.746-68.372-28.75-6.5-58.306-10.75-88.434-12.75v130.746zM551.248 602.432c41 2.376 80.626 8.5 118.306 17.812 13.532-42.498 21.842-87.058 24.842-132.996h-143.148v115.184zM551.248 408.752h143.148c-3-45.998-11.31-90.558-24.842-133.058-37.686 9.312-77.306 15.438-118.306 17.812v115.246zM596.932 133.702c-14.25-18.626-29.558-35.188-45.684-49.626v130.746c30.124-1.938 59.684-6.188 88.434-12.688-12.406-24.624-26.688-47.432-42.75-68.432zM652.9 77.888c24.060 30 45.152 63.936 62.778 101.058 20.56-8.062 40.060-17.192 58.594-27.502-35.408-31.368-76.406-56.43-121.372-73.556zM828.796 210.448c-26.186 15.876-54.436 29.81-84.402 41.5 15.534 48.934 25.468 101.624 28.654 156.804h132.932c-7.28-73.996-34.872-141.934-77.184-198.304z" />
<glyph unicode="&#xe62c;" glyph-name="leaf" d="M482.504 854.172l0.938-0.938c-181.43-36.248-330.234-199.492-342.674-385.862-6.374-95.058 23.938-179.306 78.746-240.676l522.1 521.852 46.748 15.624-15.562-46.81 0.062-0.126-0.192-0.126-725.584-725.594 55.498-55.498 216.928 216.87c48.498-22.312 104.432-33.060 164.742-29.060 186.43 12.498 349.668 161.302 385.98 342.674l0.876-0.938 105.802 494.42-494.408-105.812z" />
<glyph unicode="&#xe62d;" glyph-name="radiation" d="M512.032 361.544c64.9 0 117.746 52.808 117.746 117.748 0 64.934-52.846 117.808-117.746 117.808-64.964 0-117.776-52.874-117.776-117.808 0.002-64.938 52.81-117.748 117.776-117.748zM512.032 283.044c-35.748 0-69.246 9.562-98.12 26.376l-156.432-270.988c152.46-87.186 345.794-93.496 509.006 0.062l-156.366 270.928c-28.872-16.814-62.404-26.378-98.088-26.378zM413.912 649.22l-159.338 276.052c-162.616-94.622-253.798-265.178-254.548-440.858h315.83c1.812 70.372 40.84 131.62 98.056 164.806zM708.178 484.414h315.796c-0.188 86.498-22.342 174.056-68.652 254.304-46.308 80.248-111.052 143.244-185.834 186.618l-159.366-276.116c57.214-33.186 96.244-94.434 98.056-164.806z" />
<glyph unicode="&#xe62e;" glyph-name="radioactivewastes" d="M80.24 959.982h863.52v-116.058h-863.52v116.058zM80.24 52.078h863.49v-116.058h-863.49v116.058zM119.458 799.548v-703.1h785.056v703.1h-785.056zM512.002 501.748c23.404 0 42.466-19.062 42.466-42.5 0-23.376-19.062-42.434-42.466-42.434-23.436 0-42.498 19.058-42.498 42.434 0 23.436 19.062 42.5 42.498 42.5zM419.1 620.18l57.466-99.558c-20.656-12-34.716-34.124-35.342-59.498h-113.964c0.282 63.374 33.156 124.932 91.84 159.056zM420.164 300.254l56.402 97.746c10.438-6.062 22.53-9.5 35.436-9.5 12.876 0 24.966 3.438 35.404 9.5l56.404-97.746c-58.872-33.812-128.65-31.5-183.646 0zM582.778 461.124c-0.654 25.374-14.714 47.498-35.376 59.498l57.498 99.558c26.966-15.624 50.34-38.374 67.028-67.31 16.75-28.936 24.716-60.56 24.784-91.748l-113.934 0.002z" />
<glyph unicode="&#xe62f;" glyph-name="windturbine" d="M634.054 604.084c-65.964 0-125.554-6.688-168.302-17.436-13.032 21.562-36.154 36.31-62.81 37.81-11.656 42.874-36.154 99.558-70.184 158.494-65.060 112.62-140.244 190.992-167.992 174.932-27.748-16 2.438-120.308 67.498-232.93 33.092-57.374 68.84-105.808 99.62-137.432-7.5-12.062-11.842-26.25-11.842-41.436 0-14.25 3.78-27.562 10.406-39.062-30.436-31.686-65.624-79.496-98.182-135.948-65.060-112.624-95.246-216.93-67.498-232.93 27.75-16.060 102.932 62.248 167.992 174.87 32.998 57.188 56.998 112.2 69.058 154.634 27.156 1.126 50.716 16 63.934 37.81 42.75-10.75 102.338-17.436 168.302-17.436 130.056 0 235.488 26 235.488 58.060 0 32-105.43 58-235.488 58zM436.096 428.714c-14.656-42.136-37.216-90.2-64.904-138.2-14.374-24.876-29.624-48.808-45.092-70.808l-9.5-283.678h157.024l-16.812 501.498c-6.592-3.562-13.528-6.562-20.716-8.812z" />
<glyph unicode="&#xe630;" glyph-name="anchor" d="M909.574 284.004h-235.52l66.652-115.996h0.782c-8.436-11.436-17.748-22.31-27.962-32.56-39.876-39.874-89.496-66.436-143.496-77.498v342.050h170.682v116.058h-170.682v140.996c57.964 23 98.962 79.684 98.962 145.932 0 86.684-70.278 156.996-156.992 156.996-86.712 0-156.958-70.31-156.958-156.996 0-66.248 40.964-122.87 98.932-145.932v-140.996h-170.678v-116.058h170.678v-342.050c-53.996 11.062-103.622 37.626-143.492 77.5-10.218 10.25-19.562 21.126-28 32.558h0.812l66.652 115.996h-235.52c23.436-177.368 162.87-318.238 339.544-343.862v-0.812h6.282c16.938-2.188 34.216-3.312 51.748-3.312 17.562 0 34.81 1.126 51.748 3.312h6.282v0.812c176.708 25.624 316.108 166.494 339.544 343.862zM433.504 802.986c0 43.25 35.186 78.498 78.496 78.498s78.498-35.248 78.498-78.498c0-43.31-35.188-78.56-78.498-78.56s-78.496 35.248-78.496 78.56z" />
<glyph unicode="&#xe631;" glyph-name="bus" d="M708.024 14.766v0c0-43.562 35.15-78.746 78.496-78.746 43.306 0 78.554 35.184 78.554 78.746v0 39.246h-157.050v-39.246zM158.926 17.266v0c0-43.438 35.154-78.684 78.464-78.684 43.404 0 78.528 35.246 78.528 78.684v0 36.746h-156.992v-36.746zM865.266 959.982h-706.654c-43.216 0-78.372-35.25-78.372-78.748v-782.722h863.52v782.722c0.002 43.5-35.184 78.748-78.494 78.748zM354.76 884.17h314.016c21.688 0 39.248-17.624 39.248-39.436 0-21.686-17.56-39.312-39.248-39.312h-314.016c-21.718 0-39.216 17.626-39.216 39.312-0.002 21.812 17.498 39.436 39.216 39.436zM237.608 177.258c-32 0-57.998 26.062-57.998 58.25 0 32.058 26 58.122 57.998 58.122 32.060 0 58.060-26.058 58.060-58.122 0-32.188-25.998-58.25-58.060-58.25zM489.598 372.374h-310.612v275.494c0 43.5 35.186 78.748 78.466 78.748h232.146v-354.242zM534 726.616h232.052c43.342 0 78.528-35.248 78.528-78.748v-275.492h-310.58v354.24zM786.8 177.258c-32.092 0-58.058 26.062-58.058 58.25 0 32.058 25.966 58.122 58.058 58.122 31.962 0 57.962-26.058 57.962-58.122 0.004-32.188-25.996-58.25-57.962-58.25z" />
<glyph unicode="&#xe632;" glyph-name="car" d="M78.99 53.608v0c0-43.304 35.126-78.496 78.436-78.496 43.434 0 78.556 35.192 78.556 78.496v0 78.56h-156.992v-78.56zM788.458 53.608v0c0-43.304 35.154-78.496 78.556-78.496 43.308 0 78.462 35.192 78.462 78.496v0 78.56h-157.024l0.006-78.56zM945.48 490.466h-40.962v234.18c0 108.434-175.708 196.242-392.512 196.242s-392.514-87.808-392.514-196.242v-234.18h-40.968c-43.376 0-78.498-35.124-78.498-78.434v-235.55h1023.95v235.552c0 43.31-35.184 78.432-78.496 78.432zM235.518 721.522c1.594 2.688 5.966 8.25 14.656 15.376 9.656 8 27.31 20 56.59 31.936 56.372 23.312 129.182 36.060 205.24 36.060 75.996 0 148.958-12.75 205.238-36.060 29.248-11.938 46.876-23.936 56.59-31.936 8.692-7.126 13-12.69 14.626-15.376v-231.054h-552.94v231.054zM157.428 262.102c-43.31 0-78.436 35.186-78.436 78.498 0 43.376 35.126 78.558 78.436 78.558 43.434 0 78.556-35.188 78.556-78.558 0-43.312-35.122-78.498-78.556-78.498zM867.016 262.102c-43.4 0-78.554 35.186-78.554 78.498 0 43.376 35.154 78.558 78.554 78.558 43.31 0 78.464-35.188 78.464-78.558 0-43.312-35.154-78.498-78.464-78.498z" />
<glyph unicode="&#xe633;" glyph-name="dashboard" d="M512.002 959.982c-282.77 0-511.976-229.242-511.976-511.982 0-282.742 229.208-511.982 511.976-511.982 282.734 0 511.972 229.24 511.972 511.982 0 282.74-229.238 511.982-511.972 511.982zM512.002 52.078c-218.678 0-395.952 177.244-395.952 395.922 0 59.434 13.156 115.87 36.626 166.43l100.556-58.060c10.282 24.374 23.906 47.060 40.342 67.372l-100.932 58.248c25.126 34.186 55.53 64.186 90.122 88.81l58.214-100.748c20.688 15.876 43.654 28.936 68.34 38.562l-58.372 101.122c37.842 16.874 78.808 28 121.806 32.25v-116.808c12.594 1.75 25.498 2.626 38.592 2.626 13.532 0 26.874-0.938 39.902-2.75v116.932c43-4.25 83.964-15.376 121.806-32.25l-58.624-101.496c24.652-9.75 47.53-22.874 68.186-38.936l58.59 101.498c34.592-24.624 65.060-54.624 90.184-88.81l-101.838-58.81c16.342-20.312 29.966-42.998 40.154-67.434l101.62 58.684c23.466-50.56 36.592-106.996 36.592-166.43 0.002-218.68-177.238-395.924-395.914-395.924zM586.902 360.626l-73.122 262.18-74.872-262.178c-3.688-9.060-5.75-19.184-5.75-29.626 0-44.062 35.716-79.748 79.746-79.748 44.032 0 79.714 35.686 79.714 79.748 0.004 10.442-2.026 20.564-5.716 29.624v0z" />
<glyph unicode="&#xe634;" glyph-name="lifebuoy" d="M512.002 959.982c-282.8 0-511.976-229.242-511.976-512.044 0-282.68 229.176-511.918 511.976-511.918 282.734 0 511.972 229.238 511.972 511.916 0 282.804-229.238 512.046-511.972 512.046zM512.002 881.42c51.124 0 100.87-8.686 148.18-25.936l-40.75-112.122c-33.558 12.124-69.684 18.812-107.43 18.812-37.688 0-73.874-6.688-107.372-18.812l-40.812 112.122c47.312 17.252 97.122 25.936 148.184 25.936zM216.638 340.504l-112.12-40.688c-17.25 47.25-25.998 96.996-25.998 148.122 0 51.186 8.75 100.874 25.998 148.244l112.12-40.81c-12.188-33.562-18.81-69.748-18.81-107.434 0.002-37.75 6.626-73.876 18.81-107.434zM512.002 14.578c-51.060 0-100.872 8.626-148.182 25.876l40.81 112.188c33.5-12.192 69.684-18.812 107.372-18.812 35.184 0 69.056 5.75 100.62 16.5l40.81-112.246c-45.31-15.63-92.746-23.506-141.43-23.506zM678.618 281.316c-44.498-44.496-103.686-68.996-166.618-68.996-62.874 0-122.056 24.5-166.62 68.996-44.498 44.562-69.058 103.746-69.058 166.62 0 62.998 24.56 122.122 69.058 166.618 44.56 44.562 103.746 69.124 166.62 69.124 62.932 0 122.12-24.562 166.618-69.124 44.498-44.498 68.996-103.622 68.996-166.618 0-62.874-24.498-122.058-68.996-166.62zM804.798 333.816c13.81 35.376 21.374 73.934 21.374 114.122 0 37.686-6.626 73.874-18.806 107.434l112.182 40.748c17.248-47.31 25.936-96.996 25.936-148.182 0-53.562-9.562-105.558-28.498-154.808l-112.188 40.686z" />
<glyph unicode="&#xe635;" glyph-name="plane" d="M886.67 933.418l-220.552-220.552-594.972 180.428-69.62-69.622 455.728-319.674-213.866-213.806-177.742 43.624-65.62-65.5 199.678-132.68 132.616-199.616 65.56 65.558-43.62 177.804 643.216 643.29 26.498 137.31zM593.872 356.374l293.798-418.854 69.622 69.62-165.806 546.92z" />
<glyph unicode="&#xe636;" glyph-name="rocket" d="M115.618 265.636l222.614-222.552 18.562 92.684-148.43 148.432zM978.014 914.004c-92.15 92.248-292.576 41.312-447.662-113.806-22.626-22.5-42.876-46-60.938-69.998l-1.062 1-126.432-173.93-139.494 26.374-202.396-202.324 190.648-32 222.488-222.804 32.126-190.492 202.396 202.372-26.376 139.492 173.93 126.436-1 1.126c23.998 18.016 47.498 38.326 69.996 60.886 155.024 155.054 206.022 355.422 113.776 447.668zM592.754 417.398c-30.688-30.708-80.592-30.708-111.278 0-30.812 30.812-30.812 80.56 0 111.308 30.686 30.686 80.59 30.686 111.278 0 30.746-30.748 30.746-80.496 0-111.308zM786.368 610.954c-30.748-30.75-80.626-30.75-111.306 0-30.748 30.748-30.748 80.622 0 111.37 30.686 30.686 80.558 30.686 111.306 0 30.684-30.748 30.684-80.622 0-111.37z" />
<glyph unicode="&#xe637;" glyph-name="ship" d="M826.046 598.306v283.114c0 43.374-35.186 78.56-78.496 78.56h-471.040c-43.376 0-78.496-35.186-78.496-78.56v-283.114l314.016 107.058 314.016-107.058zM237.266-63.98h252.582v678.85l-489.822-166.87zM534.216 614.87v-678.85h252.582l237.176 511.98z" />
<glyph unicode="&#xe638;" glyph-name="steeringwheel" d="M975.042 225.946l-105.126 60.684c22.218 49.25 34.592 103.876 34.592 161.374 0 57.434-12.374 112.058-34.592 161.306l105.126 60.684-39.312 67.936-105.15-60.686c-64.058 88.808-164.396 149.868-279.33 161.304v121.434h-78.53v-121.434c-114.932-11.438-215.27-72.498-279.362-161.306l-105.12 60.686-39.28-67.936 105.088-60.684c-22.216-49.252-34.59-103.876-34.59-161.308 0-57.5 12.376-112.122 34.592-161.372l-105.088-60.682 39.28-67.934 105.12 60.684c64.090-88.872 164.43-149.872 279.362-161.304v-121.372h78.53v121.368c114.932 11.438 215.274 72.438 279.328 161.308l105.15-60.688 39.312 67.938zM788.486 448c0-35.812-6.812-70.624-19.748-102.932l-140.932 81.372c1.25 7 1.938 14.25 1.938 21.564 0 7.312-0.688 14.562-1.938 21.5l140.932 81.372c12.936-32.316 19.748-67.064 19.748-102.876zM707.49 643.428c7.812-7.812 15.156-16 21.938-24.624l-140.93-81.31c-10.876 9.25-23.468 16.626-37.25 21.562v162.62c58.966-8.31 113.4-35.374 156.242-78.248zM316.478 643.428c42.842 42.874 97.308 69.936 156.242 78.248v-162.62c-13.782-4.936-26.374-12.312-37.28-21.562l-140.836 81.31c6.718 8.626 14.030 16.816 21.874 24.624zM235.514 448c0 35.81 6.78 70.56 19.718 102.872l140.962-81.372c-1.282-6.938-1.938-14.188-1.938-21.5s0.656-14.562 1.938-21.562l-140.962-81.376c-12.938 32.312-19.718 67.126-19.718 102.938zM316.478 252.508c-7.844 7.876-15.156 16.058-21.906 24.684l140.868 81.312c10.906-9.312 23.498-16.75 37.28-21.562v-162.622c-58.932 8.312-113.4 35.312-156.242 78.188zM707.49 252.508c-42.842-42.876-97.276-69.876-156.242-78.188v162.622c13.782 4.812 26.376 12.25 37.25 21.562l140.93-81.312c-6.782-8.626-14.126-16.814-21.938-24.684z" />
<glyph unicode="&#xe639;" glyph-name="taxi1" d="M0.026 447.97h204.802v-204.746h-204.802v204.746zM204.828 652.776h204.772v-204.804h-204.772v204.804zM409.6 447.97h204.77v-204.746h-204.77v204.746zM614.37 652.776h204.834v-204.804h-204.834v204.804zM819.204 447.97h204.772v-204.746h-204.772v204.746z" />
<glyph unicode="&#xe63a;" glyph-name="taxi2" d="M78.958 14.578v0c0-43.438 35.126-78.558 78.434-78.558 43.434 0 78.558 35.126 78.558 78.558v0 78.434h-156.992v-78.434zM788.486 14.578v0c0-43.438 35.126-78.558 78.496-78.558 43.376 0 78.434 35.126 78.434 78.558v0 78.434h-156.93v-78.434zM945.416 451.374h-40.874v234.18c0 72.622-78.808 135.996-195.99 169.932v25.934c0 43.374-35.186 78.56-78.558 78.56h-235.55c-43.31 0-78.496-35.186-78.496-78.56v-25.748c-117.372-33.936-196.492-97.372-196.492-170.12v-234.18h-40.998c-43.31 0-78.434-35.124-78.434-78.436v-235.55h1023.95v235.556c0 43.308-35.060 78.432-78.558 78.432zM360.382 881.42c0 18.812 15.312 34.124 34.060 34.124h235.548c18.812 0 34.126-15.312 34.126-34.124v-14.874c-46.686 9.876-98.122 15.25-152.118 15.25-53.81 0-104.996-5.374-151.62-15.186v14.81h0.004zM235.516 682.428c1.626 2.626 6 8.25 14.624 15.374 9.686 8 27.376 20 56.624 32 56.308 23.186 129.182 36 205.24 36 75.996 0 148.93-12.812 205.174-36 29.31-12 46.94-24 56.626-32 8.75-7.124 13-12.75 14.688-15.374v-231.054h-552.976v231.054zM157.392 223.070c-43.308 0-78.434 35.126-78.434 78.434 0 43.376 35.126 78.558 78.434 78.558 43.434 0 78.558-35.188 78.558-78.558 0.002-43.308-35.122-78.434-78.558-78.434zM866.982 223.070c-43.374 0-78.496 35.126-78.496 78.434 0 43.376 35.126 78.558 78.496 78.558 43.376 0 78.434-35.188 78.434-78.558 0-43.308-35.060-78.434-78.434-78.434z" />
<glyph unicode="&#xe63b;" glyph-name="train" d="M276.512 174.946h470.946c43.376 0 78.558 35.128 78.558 78.438v628.036c0 43.374-35.188 78.56-78.558 78.56h-470.946c-43.436 0-78.558-35.186-78.558-78.56v-628.042c-0.002-43.308 35.122-78.432 78.558-78.432zM669.054 253.378c-32.094 0-58.094 26-58.094 58.058 0 32.062 26 58 58.094 58 31.964 0 57.996-25.938 57.996-58 0-32.058-26.030-58.058-57.996-58.058zM428.878 881.42h157.024c12.282 0 22.218-9.936 22.218-22.186s-9.942-22.124-22.218-22.124h-157.024c-12.218 0-22.156 9.876-22.156 22.124 0 12.252 9.938 22.186 22.156 22.186zM296.948 758.55h430.104v-310.55h-430.104v310.55zM354.976 369.442c32.030 0 58.028-25.938 58.028-58s-26-58.058-58.028-58.058c-32.062 0-58.028 25.996-58.028 58.058s25.966 58 58.028 58zM54.46-63.98h158.928l214.084 194.492h-137.056zM733.55 130.512h-137.086l214.082-194.492h158.994z" />
<glyph unicode="&#xe63c;" glyph-name="babycarriage" d="M512.002 959.984c-0.062 0-0.094 0-0.126 0h0.25c-0.062 0-0.124 0-0.124 0zM670.712 252.7c195.084 0 353.264 158.372 353.264 353.736 0 195.244-158.18 353.55-353.264 353.55-0.062 0-0.156 0-0.156 0h0.156v-353.55h-456.446l-98.276 98.244c0.032 0.876 0.062 1.75 0.062 2.562 0 32.062-25.938 58.124-58.032 58.124-31.998 0-57.998-26.062-57.998-58.124s26-58.124 57.998-58.124c0.812 0 1.626 0 2.406 0.062l103.528-103.622c27.374-158.43 160.24-280.864 323.578-291.926l28.654-24.126-39-32.688c-23.376 16.438-51.842 26.126-82.622 26.126-79.214 0-143.37-64.25-143.37-143.438 0-79.246 64.154-143.492 143.37-143.492 79.122 0 143.304 64.246 143.304 143.492 0 19.878-4.062 38.878-11.376 56.128l50.746 42.622 50.686-42.622c-7.308-17.25-11.376-36.25-11.376-56.128 0-79.246 64.186-143.492 143.306-143.492 79.184 0 143.43 64.246 143.43 143.492 0 79.188-64.246 143.438-143.43 143.438-30.748 0-59.248-9.692-82.558-26.126l-39.030 32.688 27.65 23.246c1.61-0.052 3.172-0.052 4.796-0.052zM394.57 14.52c-35.748 0-64.874 29.126-64.874 64.996 0 35.876 29.126 64.876 64.874 64.876s64.808-28.996 64.808-64.876c0-35.876-29.060-64.996-64.808-64.996zM759.866 144.386c35.806 0 64.872-28.996 64.872-64.876 0-35.876-29.060-64.996-64.872-64.996-35.688 0-64.81 29.126-64.81 64.996-0.002 35.88 29.124 64.876 64.81 64.876z" />
<glyph unicode="&#xe63d;" glyph-name="bodysuits" d="M1023.974 721.99l-237.862 237.992-3.286-3.312-0.188 3.312h-117.776c-0.812-85.998-70.78-155.496-156.868-155.496-86.246 0-156.182 69.498-156.992 155.496h-117.714l-0.218-4.876-233.044-233.116 166.43-166.556 50.966 51.060-19.376-434.986 196.178-235.49h235.488l196.24 235.49-24.126 439.672 55.652-55.748 166.496 166.558z" />
<glyph unicode="&#xe63e;" glyph-name="boy" d="M945.478 526.56c-2.938 0-5.75-0.25-8.562-0.5-39.998 179.432-215.050 314.552-424.914 314.552-209.866 0-384.92-135.12-424.918-314.55-2.784 0.25-5.69 0.5-8.532 0.5-43.374 0-78.528-35.188-78.528-78.626 0-43.308 35.156-78.434 78.528-78.434 2.842 0 5.75 0.188 8.532 0.438 39.966-179.368 215.050-314.55 424.918-314.55 209.866 0 384.914 135.184 424.914 314.55 2.812-0.25 5.626-0.44 8.562-0.44 43.376 0 78.496 35.126 78.496 78.434 0 43.44-35.124 78.626-78.496 78.626z" />
<glyph unicode="&#xe63f;" glyph-name="carousel" d="M965.95 464.874c32.056 0 58.028 26 58.028 57.998 0 32.124-25.966 58.060-58.028 58.060h-90.152l-320.736 234.93c21.282 14.062 35.438 38.186 35.438 65.684 0 43.312-35.126 78.436-78.592 78.436-43.248 0-78.434-35.124-78.434-78.436 0-27.498 14.126-51.624 35.436-65.684l-320.734-234.93h-90.186c-32.030 0-57.966-25.936-57.966-58.060 0-32 25.938-57.998 57.966-57.998h77.184v-295.43c-54.436-10.372-95.59-58.246-95.59-115.684 0-65.058 52.716-117.742 117.776-117.742 64.996 0 117.744 52.684 117.744 117.742 0 57.438-41.154 105.312-95.528 115.684v295.43h310.174v-160.932l-26.032-52.938-107.994-15.75 78.152-76.058-18.5-107.554 96.526 50.808 96.622-50.808-18.438 107.554 78.090 76.058-107.958 15.75-26.062 52.938v160.932h310.236v-295.428c-54.376-10.372-95.59-58.246-95.59-115.684 0-65.058 52.748-117.742 117.838-117.742 64.998 0 117.71 52.684 117.71 117.742 0 57.438-41.126 105.312-95.528 115.684v295.428h77.128zM511.908 915.608c18.966 0 34.216-15.312 34.216-34.062 0-18.874-15.25-34.124-34.126-34.124h-0.094c-18.782 0-34.092 15.25-34.092 34.124 0.004 18.748 15.314 34.062 34.096 34.062zM223.296 580.932l288.612 211.492 288.736-211.492h-577.348z" />
<glyph unicode="&#xe640;" glyph-name="crib" d="M1023.976 843.236c0 43.436-35.126 78.558-78.496 78.558s-78.496-35.124-78.496-78.558c0-29.062 15.812-54.31 39.248-67.998v-164.556h-788.462v159.182c23.498 13.624 39.31 38.934 39.31 67.998 0 43.31-35.186 78.498-78.558 78.498-43.308 0-78.498-35.186-78.498-78.498 0-29.062 15.844-54.374 39.31-67.998v-795.658h78.434v115.994h788.46v-110.624h78.496v795.662c23.504 13.688 39.252 38.936 39.252 67.998zM450.94 532.186h122.184v-325.864h-122.184v325.864zM406.568 206.322h-122.182v325.864h122.182v-325.864zM617.496 532.186h122.184v-325.864h-122.184v325.864zM117.77 532.186h122.244v-325.864h-122.244v325.864zM784.050 206.322v325.864h122.182v-325.864h-122.182z" />
<glyph unicode="&#xe641;" glyph-name="diaper" d="M1023.974 744.644v115.558h-1023.95v-115.556h235.552v-78.498h-235.552v-102.246c225.99-53.248 394.232-256.24 394.232-498.482 0-6.062-0.126-12.062-0.344-18.060 37.936-7.5 77.434-11.558 118.124-11.558 40.556 0 80.184 4.058 118.088 11.558-0.25 5.998-0.376 11.998-0.376 18.060 0 242.242 168.278 445.234 394.23 498.482v102.246h-235.492v78.498h235.488zM188.796 372.036c-39.782 39.808-86.186 71.058-137.836 92.932-16.626 7-33.654 12.94-50.938 17.876v-15.062c0-0.062 0-0.126 0-0.126 0-179.87 130.372-334.050 315.706-398.986-0.376 57.5-11.876 113.058-34 165.432-21.874 51.684-53.090 98.058-92.932 137.934zM835.204 372.036c-39.81-39.876-71.058-86.25-92.934-137.936-22.154-52.374-33.534-107.932-33.94-165.432 185.278 64.936 315.64 219.118 315.64 398.986v15.186c-17.28-4.936-34.28-10.876-50.996-17.876-51.588-21.872-97.93-53.12-137.77-92.928z" />
<glyph unicode="&#xe642;" glyph-name="feedingbottle" d="M669.054 563.996h-314.078c-43.404 0-78.496-35.186-78.496-78.434v-471.046c0-43.438 35.092-78.496 78.496-78.496h314.078c43.342 0 78.464 35.058 78.464 78.496v471.046c0.002 43.248-35.122 78.434-78.464 78.434zM570.030 830.046v71.938c0 31.998-25.968 57.998-58.030 57.998s-58.030-26-58.030-57.998v-71.936c-80.058-24.75-138.274-99.308-138.274-187.494h392.542c0.002 88.186-58.118 162.744-138.208 187.492z" />
<glyph unicode="&#xe643;" glyph-name="girl" d="M458.192 709.084h107.62v22.25l196.21-89.808v266.612l-196.21-89.806v22.186h-107.62v-22.186l-196.21 89.806v-266.612l196.21 89.808zM945.48 458.906c-2.876 0-5.75-0.126-8.562-0.44-18.374 82.248-65.054 155.244-130.524 210.182v-96.246l-201.74 92.372h-185.302l-201.712-92.372v96.246c-65.498-54.938-112.212-127.934-130.494-210.182-2.876 0.312-5.688 0.44-8.624 0.44-43.342 0-78.498-35.124-78.498-78.498 0-43.372 35.156-78.434 78.498-78.434 2.936 0 5.75 0.126 8.624 0.438 39.938-179.492 214.926-314.55 424.856-314.55 209.866 0 384.914 135.058 424.914 314.55 2.812-0.312 5.626-0.438 8.562-0.438 43.31 0 78.496 35.062 78.496 78.434 0.002 43.376-35.182 78.498-78.494 78.498z" />
<glyph unicode="&#xe644;" glyph-name="nipple" d="M785.854 959.982c-131.588 0-238.208-106.622-238.208-238.118 0-21.436 2.846-42.060 8.062-61.748l-126.932-126.87 168.458-168.496 126.932 126.932c19.626-5.25 40.31-8.062 61.688-8.062 131.494 0 238.114 106.684 238.114 238.242-0.002 131.5-106.62 238.12-238.114 238.12zM232.35 617.37v0c-31 31-81.246 31-112.276 0-30.998-30.998-30.998-81.31 0-112.184l106.652-106.748c-57.59-1.188-115.026-23.688-158.96-67.684-90.308-90.376-90.308-236.742 0-327.050 45.124-45.188 104.338-67.684 163.46-67.684 59.248 0 118.4 22.496 163.586 67.684 43.936 44.062 66.528 101.308 67.684 158.992l106.682-106.746c30.964-30.934 81.246-30.934 112.246 0 31.030 31.062 31.030 81.378 0 112.376l-449.074 449.044zM311.816 86.636c-21.5-21.5-50.060-33.312-80.59-33.312-30.342 0-58.966 11.812-80.528 33.312-44.342 44.438-44.342 116.746 0 161.184 21.562 21.496 50.184 33.246 80.528 33.246h0.032c30.498 0 59.060-11.75 80.558-33.246 21.53-21.562 33.31-50.126 33.31-80.688 0-30.308-11.78-58.932-33.31-80.496z" />
<glyph unicode="&#xe645;" glyph-name="rattle" d="M429.226 365.194c-20.5 20.684-38.56 43.246-53.998 67.376 0 0-336.36-290.368-340.328-294.24l-0.094-0.126h0.032c-0.032 0-0.156 0-0.156-0.126-46.216-46.248-46.216-121.244 0-167.372 46.248-46.25 121.212-46.25 167.398 0 4.126 3.94 294.516 340.488 294.516 340.488-24.154 15.374-46.714 33.5-67.37 54zM968.764 822.674c1.348 1.126 2.692 2.312 3.906 3.626 22.876 22.812 22.876 59.748 0 82.498-22.688 22.686-59.592 22.686-82.4 0-1.284-1.312-2.44-2.626-3.596-3.938-50.748 34.748-112.214 55.122-178.398 55.122-72.938 0-140.086-24.75-193.552-66.31l442.948-442.86c41.56 53.374 66.308 120.558 66.308 193.43-0.002 66.25-20.376 127.684-55.216 178.432zM392.634 644.244c0-174.306 141.398-315.674 315.64-315.674 72.96 0 140.146 24.81 193.548 66.374l-442.88 442.98c-41.526-53.498-66.308-120.62-66.308-193.68z" />
<glyph unicode="&#xe646;" glyph-name="rubberduck" d="M880.11 564.558c80.554 6.626 143.868 74.124 143.868 156.432h-118.338c-17.562 134.746-132.84 238.992-272.456 238.992-151.744 0-274.77-123.058-274.77-274.802 0-89.872 43.184-169.744 109.992-219.868-39.498-24.748-88.462-39.436-141.618-39.436-66.372 0-126.212 22.874-169.054 59.556h-0.344l-157.366 156.746v-438.92h0.126c3.94-148.308 125.4-267.24 274.644-267.24h406.23c151.708 0 274.706 122.932 274.706 274.74 0 111.874-66.808 208.054-162.742 250.866 36.904 26.438 67.028 61.812 87.122 102.934z" />
<glyph unicode="&#xe647;" glyph-name="teddybear" d="M472.75 606.682c0-21.686 17.562-39.186 39.248-39.186s39.248 17.5 39.248 39.186c0 21.75-17.562 39.248-39.248 39.248s-39.248-17.498-39.248-39.248zM325.944 253.758c-65.060 0-117.806-70.308-117.806-156.93 0-86.746 52.748-157.058 117.806-157.058s117.808 70.312 117.808 157.058c0 86.622-52.748 156.93-117.808 156.93zM742.36 253.758c-64.996 0-117.742-70.308-117.742-156.93 0-86.746 52.746-157.058 117.742-157.058 65.058 0 117.746 70.312 117.746 157.058 0 86.622-52.684 156.93-117.746 156.93zM786.734 499.686c-20.626 0-40.058-5.312-56.934-14.688-2.688 0.312-5.438 0.438-8.188 0.438h-20.878c52.938 50.186 85.996 121.184 85.996 199.806 0 13.374-0.938 26.374-2.812 39.248 0.942 0 1.878 0 2.812 0 65.128 0 117.808 52.686 117.808 117.684s-52.682 117.81-117.804 117.81c-44.188 0-82.684-24.438-102.804-60.498-47.062 37.874-106.876 60.498-171.932 60.498-65.122 0-124.87-22.626-171.868-60.498-20.186 36.060-58.684 60.498-102.932 60.498-65.060 0-117.746-52.81-117.746-117.808s52.686-117.684 117.746-117.684c0.938 0 1.876 0 2.812 0-1.812-12.874-2.812-25.874-2.812-39.248 0-78.622 33.060-149.62 85.996-199.806h-20.812c-9 0-17.686-1.75-25.56-5.124-12.376 4.5-25.75 6.812-39.624 6.812-65.060 0-117.746-52.622-117.746-117.68 0-60.126 44.998-109.688 103.246-116.876 10.812 11 22.75 20.25 35.624 27.5 21.186 12.062 43.998 18.126 67.622 18.126s46.374-6.062 67.684-18.126c19.374-10.938 36.56-26.312 51.124-45.626 27.998-37.246 43.31-86.188 43.31-137.622 0-51.5-15.312-100.376-43.31-137.746-6.376-8.378-13.25-16.126-20.626-23.062h220.116c-7.376 6.938-14.25 14.688-20.562 23.062-27.996 37.376-43.434 86.246-43.434 137.746 0 51.434 15.438 100.376 43.434 137.622 14.5 19.308 31.626 34.688 51.058 45.626 21.312 12.062 44.062 18.126 67.626 18.126 23.688 0 46.5-6.062 67.688-18.126 5.122-2.812 10.122-6.062 14.872-9.562 46.378 15.812 79.626 59.75 79.626 111.496-0.010 64.936-52.694 117.682-117.816 117.682zM511.998 410.442c-65.122 0-117.744 52.748-117.744 117.746 0 65.060 52.624 117.746 117.744 117.746 65.056 0 117.806-52.686 117.806-117.746 0-64.998-52.75-117.746-117.806-117.746z" />
<glyph unicode="&#xe648;" glyph-name="armchair" d="M802.362 420.5c-53.44 0-96.808-43.438-96.808-96.996h-387.044c0 53.558-43.31 96.996-96.808 96.996-53.372 0-96.746-43.438-96.746-96.996v0-332.988h96.746v-54.496h168.242v54.496h244.176v-54.496h168.242v54.496h96.682v332.988c-0.002 53.558-43.25 96.996-96.682 96.996zM363.006 378.374h298.11c22 56.626 76.996 96.874 141.244 96.874v0 193.93c0 160.62-129.994 290.802-290.362 290.802-160.304 0-290.298-130.184-290.298-290.802v-193.93c64.248 0.002 119.308-40.248 141.306-96.874z" />
<glyph unicode="&#xe649;" glyph-name="bathroom" d="M78.522 266.35v-157.18c0-43.312 35.154-78.436 78.528-78.436h115.806l-78.496-78.56h111.056l78.434 78.56h256.084l78.492-78.56h110.994l-78.496 78.56h116.056c43.31 0 78.53 35.124 78.53 78.436v191.242h-866.988v-34.062zM945.51 423.284v324.24c0 108.434-87.934 196.304-196.298 196.304-108.4 0-196.24-87.872-196.24-196.304v0-6.688c-45.748-16.25-78.496-59.81-78.496-111.122h235.458c0 51.31-32.716 94.872-78.464 111.122v6.688c0 64.934 52.81 117.746 117.744 117.746 64.964 0 117.776-52.81 117.776-117.746v0-324.24h-866.964v-78.496h1023.95v78.496h-78.466z" />
<glyph unicode="&#xe64a;" glyph-name="bed" d="M945.448 485.53h-866.896c-43.404 0-78.528-35.124-78.528-78.436v-235.618h78.528v-78.558h235.488v78.558h395.918v-78.246h235.488v78.246h78.528v235.618c0 43.312-35.124 78.436-78.526 78.436zM226.858 687.024h235.426v-156.994h81.964v156.994h235.488v-156.994h116.028v273.052h-785.026v-273.052h116.12z" />
<glyph unicode="&#xe64b;" glyph-name="box1" d="M1023.944 762.082l-158.68 157.056h-315.766l158.742-157.056v-314.050h-392.478v314.050l158.708 157.056h-315.734l-158.71-157.056v-785.22h1023.948v785.22z" />
<glyph unicode="&#xe64c;" glyph-name="box2" d="M587.934 331.98l118.71 442.106-209.644 56.062-40.624-151.374-112.372 30.062 40.592 151.306-210.078 56.192-142.618-530.982 450.132-120.304c27.314 32.994 64.594 56.432 105.902 66.932zM701.024 280.606l114.588 426.736 208.364 120.058-39.374 67.998-236.582-136.31-125.124-465.918c-50.804-4.812-96.804-34.186-122.212-79.122l-480.318 128.432-20.342-75.876 480.322-128.37c-0.716-69.938 45.842-134.182 116.682-153.182 83.962-22.442 170.276 27.308 192.774 111.122 20.436 75.936-18.686 153.872-88.778 184.432zM637.746 78.738c-32.124 0-58.124 26-58.124 58.058s26 58.058 58.124 58.058c32.154 0 58.214-26 58.214-58.058s-26.060-58.058-58.214-58.058z" />
<glyph unicode="&#xe64d;" glyph-name="cupboard" d="M174.516 680.052h674.968v-235.49h-674.968v235.49zM174.516 959.982h674.968v-235.554h-674.968v235.554zM174.516-63.98h315.362v464.168h-315.362v-464.168zM366.882 226.132h44.374v-116.058h-44.374v116.058zM534.186-63.98h315.294v464.168h-315.294v-464.168zM612.744 226.132h44.376v-116.058h-44.376v116.058z" />
<glyph unicode="&#xe64e;" glyph-name="desk" d="M945.416 722.866h-945.39v-549.732h78.56v471.11h866.83v-471.11h78.558v549.732zM587.092 408.814h314.018v191.242h-314.018v-191.242zM686.086 526.622h116.056v-44.374h-116.056v44.374zM587.092 173.134h314.018v191.182h-314.018v-191.182zM686.086 290.88h116.056v-44.376h-116.056v44.376z" />
<glyph unicode="&#xe64f;" glyph-name="fence" d="M1023.974 520.37v78.436h-80.214v157.306h-0.058l-117.656 203.868-117.77-203.868v-157.306h-78.496v157.306h-0.094l-117.684 203.868-117.744-203.868v-157.306h-78.496v157.306h-0.062l-117.684 203.868-117.778-203.868v-157.306h-80.212v-78.434h80.212v-348.8h-80.212v-78.496h80.212v-157.056h235.522v157.056h78.496v-157.056h235.52v157.056h78.496v-157.056h235.486v157.056h80.214v78.496h-80.214v348.8l80.216-0.002zM315.762 171.57v348.8h78.496v-348.8h-78.496zM708.272 171.57h-78.496v348.8h78.496v-348.8z" />
<glyph unicode="&#xe650;" glyph-name="signboard" d="M1023.974 642.556v156.994h-706.526v160.432h-156.992v-160.432h-160.43v-156.996h160.43v-706.536h156.994v706.54h157.024v-78.56h-78.528v-392.424h549.534v392.422h-78.496v78.56h156.99zM788.486 563.996h-235.55v78.56h235.546l0.004-78.56z" />
<glyph unicode="&#xe651;" glyph-name="sofa" d="M1023.974 409.188c0 43.438-35.186 78.626-78.558 78.626-43.306 0-78.434-35.186-78.434-78.626h-709.9c0 43.438-35.188 78.626-78.558 78.626-43.376 0-78.498-35.186-78.498-78.626v0-236.618h78.498v-78.496h235.488v78.496h395.914v-78.184h235.488v78.184h78.558v1.126l0.002 235.492zM866.982 801.924h-332.796v-351.738h299.044c16.688 45.81 60.748 78.498 112.182 78.498v194.616c0.004 43.5-35.12 78.624-78.43 78.624zM489.814 801.924h-332.732c-43.438 0-78.558-35.124-78.558-78.624v-194.618c51.498 0 95.496-32.686 112.182-78.498h299.112l-0.004 351.74z" />
<glyph unicode="&#xe652;" glyph-name="truck" d="M157.048 272.16c-43.374 0-78.496-35.184-78.496-78.496 0-43.434 35.126-78.558 78.496-78.558 43.34 0 78.496 35.128 78.496 78.558 0 43.312-35.156 78.496-78.496 78.496zM391.85 272.16c-43.376 0-78.53-35.184-78.53-78.496 0-43.434 35.154-78.558 78.53-78.558 43.308 0 78.496 35.128 78.496 78.558 0.002 43.312-35.184 78.496-78.496 78.496zM829.454 272.16c-43.404 0-78.558-35.184-78.558-78.496 0-43.434 35.154-78.558 78.558-78.558 43.342 0 78.496 35.128 78.496 78.558 0 43.312-35.156 78.496-78.496 78.496zM945.478 466.782v0.25l-78.496 156.994h-192.458v-276.74h-43.060v433.608h-631.438v-549.73h40.030c15.906 49.496 62.31 85.372 116.996 85.372 54.654 0 101.122-35.876 117.026-85.372h0.75c15.876 49.496 62.342 85.372 117.028 85.372 54.654 0 101.088-35.876 116.994-85.372h203.584c15.938 49.496 62.34 85.372 117.026 85.372 54.624 0 101.090-35.876 116.958-85.372h77.558v191.18l-78.498 44.438z" />
<glyph unicode="&#xe653;" glyph-name="TVstand" d="M1023.974 435.25v0h-1023.948v-392.672h78.528v78.558h866.894v-78.558h78.528v392.672h-0.002zM78.552 356.692h394.202v-157.058h-394.202v157.058zM551.31 199.632v157.054h394.136v-157.054h-394.136zM355.070 479.624h313.958v34.124h160.894v339.674h-635.782v-339.676h160.93v-34.122zM238.482 558.122v250.866h547.038v-250.866h-547.038z" />
<glyph unicode="&#xe654;" glyph-name="cook" d="M795.296 880.92c-31.216 0-60.998-5.374-88.058-15.062-40.186 56.436-112.618 94.124-195.238 94.124-82.124 0-154.148-37.25-194.49-93.122-27.282 9.876-57.31 15.374-88.808 15.374-126.276 0-228.676-87.996-228.676-196.492 0-94.248 77.248-172.994 180.304-192.118l49.058-436.674h565.222l48.936 435.424c103.12 19.062 180.428 97.872 180.428 192.118-0.002 108.496-102.37 196.428-228.678 196.428zM198.014 14.578h627.998v-78.558h-627.998v78.558z" />
<glyph unicode="&#xe655;" glyph-name="cuttingboard" d="M1001.014 603.966l-333.016 332.99c-30.654 30.686-80.372 30.686-111.026 0l-533.912-533.918c-30.716-30.624-30.716-80.304 0-110.996l333.016-333.020c30.624-30.654 80.372-30.654 110.994 0l533.912 533.982c30.654 30.654 30.654 80.34 0.032 110.962zM835.708 549.658c-15.312-15.312-40.216-15.312-55.534 0-0.032 0-0.032 0.060-0.032 0.060l-166.458 166.434c-15.31 15.374-15.31 40.214 0 55.498 15.308 15.342 40.15 15.342 55.494 0v0l166.528-166.494c15.314-15.314 15.314-40.124 0.002-55.498z" />
<glyph unicode="&#xe656;" glyph-name="kitchenknife" d="M941.138 959.866c0 0.062-0.062 0.062-0.062 0.126l-666.060-666.104c0.062-0.062 0.062-0.094 0.126-0.126 0.062-0.126 0.188-0.188 0.312-0.31l221.614-221.62 333.080 332.958c183.862 183.9 204.862 399.892 110.99 555.076zM53.338 72.084c-0.688-0.688-1.438-1.312-2.126-2.032-30.624-30.654-30.624-80.376 0-111.032 30.624-30.686 80.372-30.686 110.994 0v0l0.062-0.060 168.304 168.338-110.996 111.030-166.238-166.244z" />
<glyph unicode="&#xe657;" glyph-name="microwave" d="M785.048 330.288h-44.404v235.49h44.404v196.118h-785.022v-627.792h785.024v196.184zM628.026 291.038h-471.008v313.926h471.008v-313.926zM829.422 761.896h194.552v-627.792h-194.552v627.792z" />
<glyph unicode="&#xe658;" glyph-name="pan" d="M192.764 210.758l-175.616-175.68c-10.532-10.5-17-25-17-41.062 0-32.062 25.968-57.996 58.028-57.996 16.032 0 30.468 6.5 40.998 16.996l175.648 175.684c-15.126 12-29.562 24.942-43.342 38.684-13.81 13.812-26.684 28.248-38.716 43.374zM840.578 633.18c-13.558 32.060-32.998 60.876-57.78 85.684-24.78 24.874-53.624 44.248-85.714 57.81-33.212 14.062-68.496 21.188-104.898 21.188-36.406 0-71.684-7.126-104.93-21.188-32.126-13.562-60.936-32.936-85.684-57.81-24.81-24.812-44.216-53.624-57.81-85.684-14.062-33.25-21.124-68.56-21.124-104.934 0-36.436 7.062-71.748 21.124-104.998 13.594-32.062 33-60.934 57.81-85.684 24.75-24.75 53.56-44.25 85.684-57.812 33.25-14.062 68.528-21.184 104.93-21.184s71.686 7.122 104.898 21.184c32.094 13.562 60.94 33.062 85.714 57.812 24.782 24.75 44.214 53.622 57.78 85.684 14.060 33.25 21.188 68.562 21.188 104.998-0.002 36.376-7.128 71.684-21.188 104.934zM592.182 959.982c-238.422 0-431.632-193.306-431.632-431.734 0-238.494 193.21-431.798 431.636-431.798 238.39 0 431.666 193.304 431.666 431.798-0.002 238.426-193.274 431.734-431.67 431.734zM592.182 214.196c-173.396 0-313.92 140.626-313.92 314.052 0 173.368 140.524 313.926 313.92 313.926 173.37 0 313.924-140.558 313.924-313.926 0-173.432-140.556-314.052-313.924-314.052z" />
<glyph unicode="&#xe659;" glyph-name="refrigerator" d="M198.046 523.060v-508.482c0-43.438 35.186-78.558 78.496-78.558h470.914c43.342 0 78.496 35.126 78.496 78.558v508.482h-627.906zM320.884 332.004h-44.34v116.060h44.34v-116.060zM825.954 567.496v313.988c0 43.312-35.154 78.498-78.496 78.498h-470.916c-43.31 0-78.496-35.186-78.496-78.498v-313.988h627.908zM276.542 763.74h44.34v-116.058h-44.34v116.058z" />
<glyph unicode="&#xe65a;" glyph-name="rolling-pin" d="M124.142 282.004l221.99-222.118 555.004 555.418-222.018 222.118zM17.96 35.704h0.032c-10.842-10.626-17.56-25.308-17.56-41.626 0-32.062 25.966-58.058 57.998-58.058 16.282 0 31.030 6.75 41.53 17.558v0l120.026 120.122-82.026 82.062-120-120.058zM1023.568 901.92c0 32.060-25.998 58.060-58.028 58.060-15.626 0-29.786-6.188-40.248-16.25v0l-0.656-0.626c-0.062-0.126-0.126-0.126-0.188-0.188l-119.838-119.93 82.028-82.184 119.838 119.996c0.062 0.062 0.126 0.126 0.156 0.126l0.688 0.688h-0.032c10.092 10.434 16.28 24.682 16.28 40.308z" />
<glyph unicode="&#xe65b;" glyph-name="salver" d="M943.792 264.602c0 218.804-162.804 399.548-373.886 427.796 0.032 1.25 0.126 2.562 0.126 3.874 0 32-25.964 57.998-58.026 57.998-32.032 0-57.998-26-57.998-57.998 0-1.312 0.032-2.624 0.126-3.874-211.086-28.248-373.86-208.992-373.86-427.796v0h863.518zM0.026 220.228l78.496-78.498h866.956l78.496 78.498z" />
<glyph unicode="&#xe65c;" glyph-name="saucepan" d="M907.918 496.53v78.498h-791.834v-78.498h-116.058l116.058-115.998v-276.426h791.834v276.426l116.056 115.998zM907.886 615.96c0 0.062 0.032 0.126 0.032 0.188 0 59.186-146.742 108.122-337.92 116.496 0 0.438 0 0.812 0 1.25 0 32.062-25.938 57.998-57.996 57.998-32.060 0-57.998-25.936-57.998-57.998 0-0.438 0-0.812 0-1.25-191.18-8.376-337.92-57.31-337.92-116.496 0-0.062 0-0.126 0-0.188h791.802z" />
</font>
</defs>
</svg>
